<svg xmlns="http://www.w3.org/2000/svg" xmlns:xlink="http://www.w3.org/1999/xlink" width="56" zoomAndPan="magnify" viewBox="0 0 42 30.000001" height="40" preserveAspectRatio="xMidYMid meet" version="1.0"><defs><g/><clipPath id="c6451a3010"><path d="M 0.675781 0 L 24.628906 0 L 24.628906 29 L 0.675781 29 Z M 0.675781 0 " clip-rule="nonzero"/></clipPath><clipPath id="337d91d8ea"><path d="M 25.605469 13.707031 L 39.164062 13.707031 L 39.164062 28.949219 L 25.605469 28.949219 Z M 25.605469 13.707031 " clip-rule="nonzero"/></clipPath></defs><g fill="#cd212a" fill-opacity="1"><g transform="translate(21.788537, 15.130353)"><g><path d="M 1.125 0.03125 C 0.957031 0.03125 0.800781 0 0.65625 -0.0625 C 0.519531 -0.125 0.410156 -0.207031 0.328125 -0.3125 C 0.253906 -0.425781 0.21875 -0.5625 0.21875 -0.71875 L 0.671875 -0.71875 C 0.679688 -0.601562 0.722656 -0.507812 0.796875 -0.4375 C 0.878906 -0.363281 0.988281 -0.328125 1.125 -0.328125 C 1.269531 -0.328125 1.382812 -0.363281 1.46875 -0.4375 C 1.550781 -0.507812 1.59375 -0.597656 1.59375 -0.703125 C 1.59375 -0.796875 1.566406 -0.867188 1.515625 -0.921875 C 1.460938 -0.972656 1.398438 -1.015625 1.328125 -1.046875 C 1.253906 -1.078125 1.148438 -1.109375 1.015625 -1.140625 C 0.847656 -1.191406 0.710938 -1.238281 0.609375 -1.28125 C 0.503906 -1.320312 0.410156 -1.390625 0.328125 -1.484375 C 0.253906 -1.585938 0.21875 -1.71875 0.21875 -1.875 C 0.21875 -2.03125 0.253906 -2.160156 0.328125 -2.265625 C 0.410156 -2.378906 0.515625 -2.46875 0.640625 -2.53125 C 0.773438 -2.59375 0.929688 -2.625 1.109375 -2.625 C 1.359375 -2.625 1.5625 -2.5625 1.71875 -2.4375 C 1.882812 -2.3125 1.976562 -2.140625 2 -1.921875 L 1.53125 -1.921875 C 1.519531 -2.015625 1.472656 -2.09375 1.390625 -2.15625 C 1.304688 -2.21875 1.195312 -2.25 1.0625 -2.25 C 0.945312 -2.25 0.847656 -2.21875 0.765625 -2.15625 C 0.691406 -2.101562 0.65625 -2.015625 0.65625 -1.890625 C 0.65625 -1.816406 0.675781 -1.753906 0.71875 -1.703125 C 0.769531 -1.648438 0.832031 -1.609375 0.90625 -1.578125 C 0.976562 -1.546875 1.082031 -1.515625 1.21875 -1.484375 C 1.382812 -1.429688 1.519531 -1.378906 1.625 -1.328125 C 1.738281 -1.285156 1.832031 -1.21875 1.90625 -1.125 C 1.976562 -1.03125 2.015625 -0.898438 2.015625 -0.734375 C 2.015625 -0.597656 1.976562 -0.472656 1.90625 -0.359375 C 1.84375 -0.242188 1.742188 -0.148438 1.609375 -0.078125 C 1.472656 -0.00390625 1.3125 0.03125 1.125 0.03125 Z M 1.125 0.03125 "/></g></g></g><g fill="#cd212a" fill-opacity="1"><g transform="translate(23.820615, 15.130353)"><g><path d="M 3.03125 -2.046875 L 2.390625 0 L 1.953125 0 L 1.53125 -1.515625 L 1.125 0 L 0.671875 0 L 0.03125 -2.046875 L 0.46875 -2.046875 L 0.890625 -0.40625 L 1.328125 -2.046875 L 1.78125 -2.046875 L 2.1875 -0.40625 L 2.609375 -2.046875 Z M 3.03125 -2.046875 "/></g></g></g><g fill="#cd212a" fill-opacity="1"><g transform="translate(26.675203, 15.130353)"><g><path d="M 0.140625 -1.03125 C 0.140625 -1.238281 0.179688 -1.421875 0.265625 -1.578125 C 0.347656 -1.734375 0.460938 -1.851562 0.609375 -1.9375 C 0.765625 -2.03125 0.929688 -2.078125 1.109375 -2.078125 C 1.265625 -2.078125 1.398438 -2.046875 1.515625 -1.984375 C 1.640625 -1.921875 1.738281 -1.84375 1.8125 -1.75 L 1.8125 -2.046875 L 2.25 -2.046875 L 2.25 0 L 1.8125 0 L 1.8125 -0.3125 C 1.738281 -0.207031 1.640625 -0.125 1.515625 -0.0625 C 1.390625 0 1.25 0.03125 1.09375 0.03125 C 0.914062 0.03125 0.753906 -0.0078125 0.609375 -0.09375 C 0.460938 -0.1875 0.347656 -0.3125 0.265625 -0.46875 C 0.179688 -0.632812 0.140625 -0.820312 0.140625 -1.03125 Z M 1.8125 -1.03125 C 1.8125 -1.164062 1.78125 -1.285156 1.71875 -1.390625 C 1.664062 -1.492188 1.59375 -1.570312 1.5 -1.625 C 1.40625 -1.6875 1.300781 -1.71875 1.1875 -1.71875 C 1.082031 -1.71875 0.984375 -1.6875 0.890625 -1.625 C 0.796875 -1.570312 0.71875 -1.492188 0.65625 -1.390625 C 0.601562 -1.296875 0.578125 -1.175781 0.578125 -1.03125 C 0.578125 -0.894531 0.601562 -0.769531 0.65625 -0.65625 C 0.71875 -0.550781 0.796875 -0.46875 0.890625 -0.40625 C 0.984375 -0.351562 1.082031 -0.328125 1.1875 -0.328125 C 1.300781 -0.328125 1.40625 -0.351562 1.5 -0.40625 C 1.59375 -0.46875 1.664062 -0.550781 1.71875 -0.65625 C 1.78125 -0.757812 1.8125 -0.882812 1.8125 -1.03125 Z M 1.8125 -1.03125 "/></g></g></g><g fill="#cd212a" fill-opacity="1"><g transform="translate(28.982693, 15.130353)"><g><path d="M 1.3125 -2.078125 C 1.46875 -2.078125 1.609375 -2.039062 1.734375 -1.96875 C 1.867188 -1.90625 1.972656 -1.804688 2.046875 -1.671875 C 2.117188 -1.546875 2.15625 -1.390625 2.15625 -1.203125 L 2.15625 0 L 1.734375 0 L 1.734375 -1.140625 C 1.734375 -1.328125 1.6875 -1.46875 1.59375 -1.5625 C 1.5 -1.664062 1.375 -1.71875 1.21875 -1.71875 C 1.0625 -1.71875 0.9375 -1.664062 0.84375 -1.5625 C 0.75 -1.46875 0.703125 -1.328125 0.703125 -1.140625 L 0.703125 0 L 0.28125 0 L 0.28125 -2.046875 L 0.703125 -2.046875 L 0.703125 -1.8125 C 0.773438 -1.894531 0.863281 -1.957031 0.96875 -2 C 1.070312 -2.050781 1.1875 -2.078125 1.3125 -2.078125 Z M 1.3125 -2.078125 "/></g></g></g><g fill="#cd212a" fill-opacity="1"><g transform="translate(23.533097, 17.611505)"><g><path d="M 0.140625 -1.03125 C 0.140625 -1.238281 0.179688 -1.421875 0.265625 -1.578125 C 0.347656 -1.742188 0.460938 -1.867188 0.609375 -1.953125 C 0.765625 -2.035156 0.941406 -2.078125 1.140625 -2.078125 C 1.390625 -2.078125 1.59375 -2.019531 1.75 -1.90625 C 1.914062 -1.789062 2.03125 -1.625 2.09375 -1.40625 L 1.625 -1.40625 C 1.59375 -1.5 1.535156 -1.570312 1.453125 -1.625 C 1.367188 -1.6875 1.265625 -1.71875 1.140625 -1.71875 C 0.960938 -1.71875 0.820312 -1.65625 0.71875 -1.53125 C 0.625 -1.414062 0.578125 -1.25 0.578125 -1.03125 C 0.578125 -0.8125 0.625 -0.640625 0.71875 -0.515625 C 0.820312 -0.390625 0.960938 -0.328125 1.140625 -0.328125 C 1.390625 -0.328125 1.550781 -0.429688 1.625 -0.640625 L 2.09375 -0.640625 C 2.03125 -0.429688 1.914062 -0.265625 1.75 -0.140625 C 1.582031 -0.0234375 1.378906 0.03125 1.140625 0.03125 C 0.941406 0.03125 0.765625 -0.0078125 0.609375 -0.09375 C 0.460938 -0.1875 0.347656 -0.3125 0.265625 -0.46875 C 0.179688 -0.625 0.140625 -0.8125 0.140625 -1.03125 Z M 0.140625 -1.03125 "/></g></g></g><g fill="#cd212a" fill-opacity="1"><g transform="translate(25.550292, 17.611505)"><g><path d="M 0.5 -2.328125 C 0.414062 -2.328125 0.347656 -2.351562 0.296875 -2.40625 C 0.242188 -2.457031 0.21875 -2.519531 0.21875 -2.59375 C 0.21875 -2.664062 0.242188 -2.726562 0.296875 -2.78125 C 0.347656 -2.832031 0.414062 -2.859375 0.5 -2.859375 C 0.570312 -2.859375 0.632812 -2.832031 0.6875 -2.78125 C 0.738281 -2.726562 0.765625 -2.664062 0.765625 -2.59375 C 0.765625 -2.519531 0.738281 -2.457031 0.6875 -2.40625 C 0.632812 -2.351562 0.570312 -2.328125 0.5 -2.328125 Z M 0.703125 -2.046875 L 0.703125 0 L 0.28125 0 L 0.28125 -2.046875 Z M 0.703125 -2.046875 "/></g></g></g><g fill="#cd212a" fill-opacity="1"><g transform="translate(26.316977, 17.611505)"><g><path d="M 0.78125 -1.703125 L 0.78125 -0.5625 C 0.78125 -0.488281 0.796875 -0.4375 0.828125 -0.40625 C 0.859375 -0.375 0.921875 -0.359375 1.015625 -0.359375 L 1.265625 -0.359375 L 1.265625 0 L 0.9375 0 C 0.75 0 0.601562 -0.0390625 0.5 -0.125 C 0.394531 -0.21875 0.34375 -0.363281 0.34375 -0.5625 L 0.34375 -1.703125 L 0.109375 -1.703125 L 0.109375 -2.046875 L 0.34375 -2.046875 L 0.34375 -2.5625 L 0.78125 -2.5625 L 0.78125 -2.046875 L 1.265625 -2.046875 L 1.265625 -1.703125 Z M 0.78125 -1.703125 "/></g></g></g><g fill="#cd212a" fill-opacity="1"><g transform="translate(27.485611, 17.611505)"><g><path d="M 2.125 -2.046875 L 0.859375 0.96875 L 0.421875 0.96875 L 0.84375 -0.03125 L 0.03125 -2.046875 L 0.515625 -2.046875 L 1.078125 -0.484375 L 1.6875 -2.046875 Z M 2.125 -2.046875 "/></g></g></g><g fill="#cd212a" fill-opacity="1"><g transform="translate(22.258599, 20.092658)"><g><path d="M 0.703125 -1.75 C 0.773438 -1.84375 0.875 -1.921875 1 -1.984375 C 1.125 -2.046875 1.265625 -2.078125 1.421875 -2.078125 C 1.597656 -2.078125 1.757812 -2.03125 1.90625 -1.9375 C 2.050781 -1.851562 2.164062 -1.734375 2.25 -1.578125 C 2.332031 -1.421875 2.375 -1.238281 2.375 -1.03125 C 2.375 -0.820312 2.332031 -0.632812 2.25 -0.46875 C 2.164062 -0.3125 2.050781 -0.1875 1.90625 -0.09375 C 1.757812 -0.0078125 1.597656 0.03125 1.421875 0.03125 C 1.265625 0.03125 1.125 0 1 -0.0625 C 0.875 -0.125 0.773438 -0.203125 0.703125 -0.296875 L 0.703125 0.96875 L 0.28125 0.96875 L 0.28125 -2.046875 L 0.703125 -2.046875 Z M 1.953125 -1.03125 C 1.953125 -1.175781 1.921875 -1.296875 1.859375 -1.390625 C 1.804688 -1.492188 1.726562 -1.570312 1.625 -1.625 C 1.53125 -1.6875 1.429688 -1.71875 1.328125 -1.71875 C 1.210938 -1.71875 1.109375 -1.6875 1.015625 -1.625 C 0.921875 -1.570312 0.84375 -1.492188 0.78125 -1.390625 C 0.726562 -1.285156 0.703125 -1.164062 0.703125 -1.03125 C 0.703125 -0.882812 0.726562 -0.757812 0.78125 -0.65625 C 0.84375 -0.550781 0.921875 -0.46875 1.015625 -0.40625 C 1.109375 -0.351562 1.210938 -0.328125 1.328125 -0.328125 C 1.429688 -0.328125 1.53125 -0.351562 1.625 -0.40625 C 1.726562 -0.46875 1.804688 -0.550781 1.859375 -0.65625 C 1.921875 -0.769531 1.953125 -0.894531 1.953125 -1.03125 Z M 1.953125 -1.03125 "/></g></g></g><g fill="#cd212a" fill-opacity="1"><g transform="translate(24.56609, 20.092658)"><g><path d="M 0.5 -2.328125 C 0.414062 -2.328125 0.347656 -2.351562 0.296875 -2.40625 C 0.242188 -2.457031 0.21875 -2.519531 0.21875 -2.59375 C 0.21875 -2.664062 0.242188 -2.726562 0.296875 -2.78125 C 0.347656 -2.832031 0.414062 -2.859375 0.5 -2.859375 C 0.570312 -2.859375 0.632812 -2.832031 0.6875 -2.78125 C 0.738281 -2.726562 0.765625 -2.664062 0.765625 -2.59375 C 0.765625 -2.519531 0.738281 -2.457031 0.6875 -2.40625 C 0.632812 -2.351562 0.570312 -2.328125 0.5 -2.328125 Z M 0.703125 -2.046875 L 0.703125 0 L 0.28125 0 L 0.28125 -2.046875 Z M 0.703125 -2.046875 "/></g></g></g><g fill="#cd212a" fill-opacity="1"><g transform="translate(25.332775, 20.092658)"><g><path d="M 0.65625 -0.34375 L 1.578125 -0.34375 L 1.578125 0 L 0.15625 0 L 0.15625 -0.34375 L 1.09375 -1.703125 L 0.15625 -1.703125 L 0.15625 -2.046875 L 1.578125 -2.046875 L 1.578125 -1.703125 Z M 0.65625 -0.34375 "/></g></g></g><g fill="#cd212a" fill-opacity="1"><g transform="translate(26.869861, 20.092658)"><g><path d="M 0.65625 -0.34375 L 1.578125 -0.34375 L 1.578125 0 L 0.15625 0 L 0.15625 -0.34375 L 1.09375 -1.703125 L 0.15625 -1.703125 L 0.15625 -2.046875 L 1.578125 -2.046875 L 1.578125 -1.703125 Z M 0.65625 -0.34375 "/></g></g></g><g fill="#cd212a" fill-opacity="1"><g transform="translate(28.406947, 20.092658)"><g><path d="M 0.140625 -1.03125 C 0.140625 -1.238281 0.179688 -1.421875 0.265625 -1.578125 C 0.347656 -1.734375 0.460938 -1.851562 0.609375 -1.9375 C 0.765625 -2.03125 0.929688 -2.078125 1.109375 -2.078125 C 1.265625 -2.078125 1.398438 -2.046875 1.515625 -1.984375 C 1.640625 -1.921875 1.738281 -1.84375 1.8125 -1.75 L 1.8125 -2.046875 L 2.25 -2.046875 L 2.25 0 L 1.8125 0 L 1.8125 -0.3125 C 1.738281 -0.207031 1.640625 -0.125 1.515625 -0.0625 C 1.390625 0 1.25 0.03125 1.09375 0.03125 C 0.914062 0.03125 0.753906 -0.0078125 0.609375 -0.09375 C 0.460938 -0.1875 0.347656 -0.3125 0.265625 -0.46875 C 0.179688 -0.632812 0.140625 -0.820312 0.140625 -1.03125 Z M 1.8125 -1.03125 C 1.8125 -1.164062 1.78125 -1.285156 1.71875 -1.390625 C 1.664062 -1.492188 1.59375 -1.570312 1.5 -1.625 C 1.40625 -1.6875 1.300781 -1.71875 1.1875 -1.71875 C 1.082031 -1.71875 0.984375 -1.6875 0.890625 -1.625 C 0.796875 -1.570312 0.71875 -1.492188 0.65625 -1.390625 C 0.601562 -1.296875 0.578125 -1.175781 0.578125 -1.03125 C 0.578125 -0.894531 0.601562 -0.769531 0.65625 -0.65625 C 0.71875 -0.550781 0.796875 -0.46875 0.890625 -0.40625 C 0.984375 -0.351562 1.082031 -0.328125 1.1875 -0.328125 C 1.300781 -0.328125 1.40625 -0.351562 1.5 -0.40625 C 1.59375 -0.46875 1.664062 -0.550781 1.71875 -0.65625 C 1.78125 -0.757812 1.8125 -0.882812 1.8125 -1.03125 Z M 1.8125 -1.03125 "/></g></g></g><g clip-path="url(#c6451a3010)"><path fill="#cd212a" d="M 23.160156 9.617188 C 22.863281 10.238281 22.324219 10.691406 21.617188 10.71875 C 20.890625 10.746094 20.375 10.242188 19.808594 9.855469 C 18.527344 8.980469 17.148438 8.253906 15.726562 7.640625 C 12.535156 6.261719 9.082031 5.410156 5.605469 5.28125 C 4.386719 5.238281 2.605469 5.667969 2.085938 4.15625 C 1.90625 3.632812 1.957031 3.046875 2.265625 2.582031 C 2.628906 2.03125 3.1875 1.871094 3.808594 1.785156 C 7.085938 1.332031 10.492188 1.835938 13.640625 2.785156 C 16.9375 3.78125 20.199219 5.351562 22.730469 7.742188 C 23.335938 8.316406 24.246094 7.398438 23.640625 6.828125 C 21.105469 4.429688 17.898438 2.804688 14.613281 1.730469 C 11.085938 0.578125 7.246094 0 3.550781 0.519531 C 2 0.738281 0.722656 1.8125 0.695312 3.488281 C 0.675781 4.675781 1.355469 5.765625 2.371094 6.277344 C 2.429688 6.320312 2.496094 6.351562 2.574219 6.371094 C 2.777344 6.453125 2.988281 6.515625 3.210938 6.550781 C 4.046875 6.679688 4.9375 6.550781 5.78125 6.585938 C 6.738281 6.628906 7.691406 6.730469 8.632812 6.886719 C 10.632812 7.21875 12.597656 7.769531 14.480469 8.515625 C 16.3125 9.242188 18.074219 10.175781 19.671875 11.335938 C 19.949219 11.539062 20.25 11.691406 20.554688 11.796875 C 20.003906 12.394531 19.453125 12.992188 18.902344 13.589844 C 18.726562 12.710938 18.105469 11.960938 17.183594 11.679688 C 15.886719 11.292969 14.484375 12.089844 14.105469 13.386719 C 13.726562 14.695312 14.507812 16.109375 15.796875 16.492188 C 15.917969 16.527344 16.039062 16.550781 16.160156 16.570312 C 16.113281 16.621094 16.066406 16.671875 16.015625 16.722656 C 13.257812 19.71875 10.496094 22.710938 7.738281 25.707031 C 7.390625 26.082031 7.042969 26.460938 6.699219 26.835938 C 6.386719 25.0625 6.078125 23.285156 5.769531 21.511719 C 5.167969 18.050781 4.566406 14.589844 3.964844 11.132812 C 3.828125 10.332031 3.6875 9.535156 3.550781 8.738281 C 3.40625 7.914062 2.167969 8.261719 2.308594 9.082031 C 2.6875 11.265625 3.066406 13.445312 3.449219 15.628906 C 4.050781 19.089844 4.652344 22.550781 5.253906 26.007812 C 5.390625 26.808594 5.53125 27.605469 5.667969 28.402344 C 5.753906 28.886719 6.433594 29.027344 6.746094 28.691406 C 8.484375 26.800781 10.226562 24.914062 11.964844 23.023438 C 14.726562 20.03125 17.484375 17.035156 20.242188 14.042969 C 20.878906 13.351562 21.511719 12.664062 22.148438 11.976562 C 22.164062 11.957031 22.183594 11.933594 22.199219 11.914062 C 23.058594 11.738281 23.835938 11.1875 24.269531 10.269531 C 24.625 9.523438 23.519531 8.863281 23.160156 9.617188 Z M 15.347656 13.734375 C 15.804688 12.246094 18.015625 12.929688 17.632812 14.441406 C 17.136719 15.921875 14.890625 15.214844 15.347656 13.734375 Z M 15.347656 13.734375 " fill-opacity="1" fill-rule="nonzero"/></g><path fill="#cd212a" d="M 8.65625 7.878906 C 7.359375 7.488281 5.957031 8.285156 5.578125 9.582031 C 5.199219 10.890625 5.980469 12.304688 7.269531 12.6875 C 8.554688 13.066406 9.816406 12.328125 10.292969 11.128906 C 10.316406 11.082031 10.332031 11.035156 10.347656 10.980469 C 10.363281 10.929688 10.375 10.878906 10.378906 10.828125 C 10.625 9.550781 9.929688 8.261719 8.65625 7.878906 Z M 6.820312 9.929688 C 7.277344 8.441406 9.488281 9.125 9.105469 10.636719 C 8.609375 12.117188 6.363281 11.410156 6.820312 9.929688 Z M 6.820312 9.929688 " fill-opacity="1" fill-rule="nonzero"/><path fill="#cd212a" d="M 7.527344 18.820312 C 7.527344 20.183594 8.660156 21.328125 10.007812 21.328125 C 11.34375 21.328125 12.359375 20.269531 12.480469 18.976562 C 12.488281 18.929688 12.492188 18.878906 12.492188 18.824219 C 12.492188 18.765625 12.488281 18.714844 12.480469 18.667969 C 12.359375 17.375 11.34375 16.324219 10.007812 16.320312 C 8.660156 16.3125 7.527344 17.464844 7.527344 18.820312 Z M 11.207031 18.820312 C 11.144531 20.382812 8.8125 20.375 8.8125 18.820312 C 8.8125 17.269531 11.144531 17.257812 11.207031 18.820312 Z M 11.207031 18.820312 " fill-opacity="1" fill-rule="nonzero"/><g clip-path="url(#337d91d8ea)"><path fill="#cd212a" d="M 39.164062 16.066406 C 38.828125 16.230469 38.449219 16.28125 38.089844 16.234375 C 37.914062 16.207031 37.738281 16.160156 37.574219 16.089844 C 37.410156 16.019531 37.257812 15.925781 37.128906 15.8125 C 37.113281 15.800781 37.097656 15.785156 37.082031 15.769531 L 37.011719 15.699219 L 36.992188 15.675781 L 36.96875 15.652344 C 36.960938 15.644531 36.953125 15.632812 36.945312 15.625 C 36.890625 15.5625 36.839844 15.492188 36.789062 15.417969 C 36.691406 15.273438 36.601562 15.117188 36.511719 14.957031 C 36.421875 14.796875 36.328125 14.632812 36.21875 14.472656 C 36.109375 14.316406 35.980469 14.15625 35.816406 14.027344 C 35.734375 13.960938 35.644531 13.902344 35.546875 13.851562 L 35.476562 13.820312 L 35.460938 13.8125 C 35.457031 13.808594 35.449219 13.808594 35.441406 13.804688 L 35.355469 13.773438 L 35.316406 13.761719 C 35.289062 13.753906 35.265625 13.746094 35.238281 13.742188 C 35.210938 13.738281 35.183594 13.730469 35.15625 13.726562 L 35.074219 13.714844 L 34.992188 13.710938 C 34.960938 13.707031 34.933594 13.707031 34.90625 13.707031 C 34.796875 13.710938 34.6875 13.722656 34.582031 13.746094 C 34.476562 13.769531 34.375 13.804688 34.277344 13.847656 C 34.179688 13.890625 34.085938 13.9375 33.996094 13.996094 C 33.90625 14.050781 33.820312 14.113281 33.742188 14.183594 C 33.664062 14.253906 33.589844 14.328125 33.519531 14.40625 C 33.453125 14.484375 33.390625 14.570312 33.335938 14.660156 C 33.277344 14.75 33.226562 14.84375 33.1875 14.941406 C 33.175781 14.964844 33.164062 14.992188 33.15625 15.015625 C 33.148438 15.042969 33.136719 15.066406 33.128906 15.09375 L 33.105469 15.167969 L 33.089844 15.246094 L 33.074219 15.316406 L 33.066406 15.347656 L 33.058594 15.386719 C 33.050781 15.441406 33.042969 15.496094 33.035156 15.550781 C 33.011719 15.753906 33.015625 15.957031 33.039062 16.160156 C 33.042969 16.207031 33.046875 16.257812 33.058594 16.308594 L 33.082031 16.457031 C 33.105469 16.554688 33.125 16.652344 33.152344 16.746094 C 33.257812 17.125 33.414062 17.480469 33.589844 17.824219 L 33.65625 17.949219 L 33.675781 17.980469 L 33.691406 18.015625 L 33.726562 18.074219 L 33.792969 18.195312 L 33.828125 18.253906 C 33.839844 18.273438 33.851562 18.292969 33.863281 18.316406 L 34.007812 18.558594 L 34.15625 18.796875 C 34.554688 19.429688 34.980469 20.035156 35.375 20.640625 C 35.570312 20.941406 35.757812 21.246094 35.929688 21.554688 C 36.019531 21.707031 36.097656 21.863281 36.179688 22.019531 L 36.292969 22.257812 L 36.34375 22.375 C 36.355469 22.398438 36.363281 22.417969 36.371094 22.4375 L 36.394531 22.492188 C 36.410156 22.53125 36.425781 22.570312 36.441406 22.609375 L 36.464844 22.671875 L 36.484375 22.730469 C 36.515625 22.8125 36.542969 22.890625 36.570312 22.972656 C 36.621094 23.132812 36.664062 23.296875 36.703125 23.464844 C 36.738281 23.628906 36.769531 23.792969 36.792969 23.960938 C 36.8125 24.125 36.828125 24.292969 36.832031 24.457031 C 36.835938 24.621094 36.832031 24.785156 36.816406 24.949219 C 36.800781 25.109375 36.777344 25.269531 36.742188 25.425781 C 36.703125 25.582031 36.660156 25.734375 36.601562 25.878906 C 36.542969 26.027344 36.472656 26.167969 36.394531 26.300781 C 36.382812 26.316406 36.375 26.332031 36.363281 26.347656 L 36.332031 26.398438 L 36.296875 26.445312 C 36.289062 26.460938 36.273438 26.476562 36.265625 26.492188 L 36.230469 26.539062 L 36.21875 26.550781 L 36.214844 26.558594 C 36.238281 26.53125 36.21875 26.554688 36.222656 26.550781 L 36.199219 26.578125 L 36.113281 26.683594 L 36.089844 26.710938 C 36.085938 26.714844 36.082031 26.71875 36.078125 26.722656 L 36.03125 26.769531 L 35.957031 26.847656 L 35.871094 26.925781 C 35.84375 26.953125 35.8125 26.980469 35.78125 27.003906 C 35.539062 27.207031 35.257812 27.375 34.957031 27.511719 C 34.65625 27.644531 34.332031 27.746094 34.003906 27.816406 C 33.960938 27.824219 33.917969 27.832031 33.878906 27.839844 C 33.835938 27.847656 33.792969 27.855469 33.753906 27.863281 L 33.625 27.882812 L 33.5 27.898438 L 33.371094 27.914062 L 33.355469 27.914062 C 33.359375 27.914062 33.335938 27.917969 33.363281 27.914062 L 33.355469 27.914062 L 33.320312 27.917969 L 33.109375 27.929688 L 33.003906 27.9375 L 32.726562 27.9375 C 32.6875 27.941406 32.644531 27.9375 32.601562 27.9375 L 32.472656 27.929688 C 32.429688 27.929688 32.382812 27.929688 32.339844 27.925781 L 32.214844 27.914062 L 32.085938 27.902344 L 32.019531 27.898438 L 31.957031 27.886719 L 31.699219 27.851562 C 31.613281 27.835938 31.53125 27.820312 31.445312 27.800781 C 31.359375 27.789062 31.277344 27.765625 31.191406 27.746094 C 31.109375 27.722656 31.023438 27.707031 30.941406 27.679688 C 30.859375 27.65625 30.777344 27.632812 30.695312 27.605469 L 30.449219 27.519531 L 30.390625 27.496094 L 30.328125 27.472656 L 30.210938 27.421875 L 30.089844 27.375 C 30.050781 27.355469 30.011719 27.339844 29.972656 27.320312 L 29.855469 27.265625 C 29.816406 27.246094 29.777344 27.230469 29.742188 27.207031 L 29.511719 27.085938 L 29.484375 27.074219 L 29.457031 27.054688 L 29.402344 27.023438 L 29.292969 26.957031 C 29.253906 26.933594 29.214844 26.914062 29.179688 26.890625 L 29.074219 26.816406 C 28.929688 26.726562 28.796875 26.621094 28.65625 26.515625 L 28.460938 26.351562 L 28.414062 26.3125 L 28.40625 26.308594 C 28.402344 26.304688 28.421875 26.320312 28.410156 26.3125 L 28.371094 26.273438 L 28.167969 26.085938 C 28.152344 26.070312 28.140625 26.054688 28.125 26.042969 L 28.082031 25.996094 L 27.996094 25.90625 L 27.933594 25.84375 L 27.746094 25.625 C 27.714844 25.59375 27.691406 25.558594 27.664062 25.523438 L 27.585938 25.421875 C 27.167969 24.882812 26.839844 24.273438 26.613281 23.628906 L 26.589844 23.570312 L 26.570312 23.507812 L 26.53125 23.386719 L 26.492188 23.261719 C 26.480469 23.222656 26.472656 23.179688 26.460938 23.140625 L 26.429688 23.015625 C 26.417969 22.972656 26.40625 22.933594 26.398438 22.890625 L 26.347656 22.640625 C 26.289062 22.304688 26.257812 21.964844 26.25 21.625 L 25.457031 21.859375 C 25.65625 22.136719 25.902344 22.375 26.175781 22.5625 C 26.449219 22.753906 26.742188 22.898438 27.046875 23.011719 C 27.347656 23.121094 27.660156 23.195312 27.972656 23.242188 L 28.148438 23.265625 L 28.175781 23.265625 L 28.183594 23.269531 L 28.210938 23.269531 L 28.320312 23.28125 L 28.347656 23.28125 L 28.378906 23.285156 L 28.4375 23.289062 C 28.476562 23.289062 28.519531 23.292969 28.558594 23.296875 L 28.671875 23.300781 C 28.75 23.304688 28.828125 23.300781 28.902344 23.304688 C 29.210938 23.304688 29.511719 23.289062 29.808594 23.265625 C 30.105469 23.238281 30.394531 23.210938 30.6875 23.183594 C 30.828125 23.167969 30.976562 23.15625 31.117188 23.144531 L 31.226562 23.136719 L 31.332031 23.128906 C 31.402344 23.125 31.472656 23.121094 31.542969 23.117188 C 31.828125 23.105469 32.109375 23.101562 32.390625 23.117188 C 32.667969 23.136719 32.941406 23.175781 33.210938 23.234375 C 33.246094 23.242188 33.277344 23.253906 33.308594 23.261719 C 33.34375 23.269531 33.375 23.277344 33.410156 23.285156 L 33.507812 23.316406 C 33.523438 23.324219 33.539062 23.328125 33.554688 23.332031 L 33.605469 23.351562 L 33.699219 23.386719 C 33.699219 23.386719 33.707031 23.386719 33.699219 23.386719 L 33.703125 23.386719 L 33.710938 23.390625 L 33.722656 23.394531 L 33.746094 23.40625 C 33.765625 23.410156 33.78125 23.417969 33.796875 23.425781 C 33.824219 23.4375 33.855469 23.449219 33.886719 23.464844 C 33.914062 23.480469 33.945312 23.496094 33.976562 23.511719 C 34.097656 23.574219 34.210938 23.644531 34.320312 23.722656 C 34.429688 23.800781 34.535156 23.886719 34.632812 23.980469 C 34.726562 24.074219 34.816406 24.175781 34.894531 24.285156 C 34.9375 24.339844 34.972656 24.394531 35.007812 24.453125 C 35.039062 24.511719 35.074219 24.566406 35.101562 24.628906 C 35.160156 24.75 35.203125 24.875 35.230469 25.003906 C 35.238281 25.035156 35.246094 25.070312 35.25 25.101562 C 35.257812 25.132812 35.261719 25.167969 35.265625 25.199219 L 35.269531 25.25 L 35.269531 25.261719 C 35.269531 25.261719 35.269531 25.269531 35.269531 25.261719 L 35.269531 25.273438 L 35.273438 25.300781 C 35.273438 25.316406 35.273438 25.335938 35.273438 25.351562 L 35.273438 25.398438 C 35.269531 25.527344 35.242188 25.660156 35.203125 25.789062 C 35.164062 25.917969 35.105469 26.042969 35.035156 26.160156 C 34.960938 26.277344 34.875 26.386719 34.777344 26.484375 C 34.679688 26.582031 34.566406 26.667969 34.445312 26.738281 C 34.320312 26.808594 34.1875 26.863281 34.046875 26.890625 C 33.90625 26.921875 33.761719 26.925781 33.613281 26.90625 C 33.757812 26.941406 33.90625 26.953125 34.054688 26.9375 C 34.203125 26.921875 34.347656 26.882812 34.484375 26.820312 C 34.625 26.757812 34.75 26.675781 34.867188 26.582031 C 34.984375 26.484375 35.089844 26.375 35.179688 26.253906 C 35.269531 26.132812 35.34375 26 35.402344 25.859375 C 35.460938 25.71875 35.503906 25.570312 35.519531 25.414062 L 35.527344 25.355469 C 35.527344 25.335938 35.527344 25.320312 35.53125 25.300781 L 35.53125 25.183594 C 35.53125 25.148438 35.527344 25.109375 35.523438 25.070312 C 35.519531 25.03125 35.519531 24.992188 35.511719 24.957031 C 35.488281 24.804688 35.453125 24.652344 35.394531 24.507812 C 35.34375 24.363281 35.273438 24.226562 35.191406 24.097656 C 35.109375 23.964844 35.015625 23.839844 34.914062 23.726562 C 34.707031 23.496094 34.464844 23.296875 34.199219 23.132812 C 34.164062 23.113281 34.132812 23.09375 34.097656 23.074219 C 34.0625 23.054688 34.027344 23.035156 33.992188 23.019531 C 33.972656 23.007812 33.957031 23 33.941406 22.992188 L 33.914062 22.980469 L 33.902344 22.976562 L 33.894531 22.96875 L 33.886719 22.96875 L 33.78125 22.921875 L 33.726562 22.898438 C 33.710938 22.890625 33.691406 22.882812 33.675781 22.875 L 33.566406 22.835938 C 33.527344 22.820312 33.492188 22.808594 33.457031 22.796875 C 33.417969 22.785156 33.382812 22.769531 33.34375 22.761719 C 33.269531 22.742188 33.195312 22.71875 33.121094 22.699219 L 33.007812 22.671875 L 32.894531 22.648438 L 32.839844 22.636719 L 32.78125 22.628906 L 32.667969 22.609375 C 32.59375 22.597656 32.515625 22.585938 32.441406 22.578125 C 32.136719 22.542969 31.832031 22.527344 31.53125 22.527344 C 31.457031 22.527344 31.382812 22.523438 31.308594 22.527344 L 31.195312 22.527344 L 31.082031 22.53125 C 30.933594 22.535156 30.789062 22.542969 30.640625 22.546875 C 30.347656 22.5625 30.054688 22.578125 29.769531 22.585938 C 29.480469 22.59375 29.199219 22.597656 28.917969 22.585938 C 28.847656 22.582031 28.78125 22.578125 28.710938 22.574219 L 28.609375 22.566406 C 28.574219 22.5625 28.542969 22.558594 28.507812 22.554688 L 28.457031 22.550781 L 28.433594 22.546875 L 28.269531 22.523438 L 28.265625 22.523438 C 28.265625 22.523438 28.257812 22.523438 28.265625 22.523438 L 28.25 22.523438 L 28.203125 22.511719 L 28.101562 22.496094 C 27.839844 22.445312 27.582031 22.371094 27.339844 22.273438 C 27.097656 22.175781 26.875 22.050781 26.675781 21.902344 C 26.476562 21.753906 26.308594 21.578125 26.175781 21.382812 L 25.402344 20.234375 L 25.382812 21.617188 C 25.375 22.007812 25.402344 22.394531 25.457031 22.78125 L 25.507812 23.066406 C 25.515625 23.117188 25.527344 23.164062 25.539062 23.210938 L 25.570312 23.351562 C 25.582031 23.398438 25.59375 23.449219 25.605469 23.496094 L 25.703125 23.847656 L 25.726562 23.914062 L 25.820312 24.191406 C 25.855469 24.28125 25.894531 24.371094 25.929688 24.460938 C 25.964844 24.554688 26.007812 24.640625 26.050781 24.730469 C 26.089844 24.820312 26.128906 24.90625 26.175781 24.992188 C 26.222656 25.078125 26.269531 25.167969 26.316406 25.253906 L 26.464844 25.503906 L 26.503906 25.566406 L 26.546875 25.628906 L 26.710938 25.871094 C 26.738281 25.914062 26.769531 25.953125 26.796875 25.992188 L 26.886719 26.109375 C 26.914062 26.148438 26.945312 26.1875 26.976562 26.226562 L 27.167969 26.453125 L 27.191406 26.480469 L 27.21875 26.507812 L 27.269531 26.566406 L 27.375 26.675781 L 27.425781 26.734375 C 27.445312 26.75 27.460938 26.769531 27.476562 26.785156 L 27.679688 26.976562 L 27.714844 27.011719 C 27.707031 27.007812 27.730469 27.027344 27.730469 27.027344 L 27.738281 27.035156 L 27.796875 27.082031 L 28.019531 27.277344 L 28.257812 27.457031 L 28.316406 27.503906 C 28.335938 27.519531 28.355469 27.53125 28.378906 27.546875 L 28.5 27.632812 L 28.625 27.714844 C 28.664062 27.742188 28.707031 27.769531 28.75 27.792969 L 28.875 27.871094 L 28.941406 27.910156 L 29.003906 27.949219 L 29.265625 28.089844 C 29.308594 28.117188 29.355469 28.136719 29.398438 28.15625 L 29.535156 28.222656 C 29.578125 28.242188 29.625 28.265625 29.667969 28.285156 L 29.808594 28.34375 L 29.945312 28.402344 L 30.085938 28.457031 L 30.367188 28.554688 C 30.460938 28.585938 30.554688 28.617188 30.652344 28.644531 C 30.746094 28.675781 30.84375 28.699219 30.941406 28.722656 C 31.035156 28.746094 31.132812 28.773438 31.230469 28.789062 C 31.328125 28.808594 31.425781 28.828125 31.527344 28.847656 L 31.824219 28.890625 L 32.121094 28.921875 L 32.269531 28.933594 C 32.320312 28.9375 32.371094 28.9375 32.421875 28.941406 L 32.570312 28.945312 C 32.621094 28.949219 32.671875 28.953125 32.722656 28.949219 L 33.035156 28.945312 L 33.074219 28.945312 L 33.109375 28.941406 L 33.179688 28.9375 L 33.316406 28.929688 L 33.386719 28.925781 L 33.421875 28.921875 L 33.429688 28.921875 C 33.460938 28.917969 33.445312 28.921875 33.453125 28.917969 L 33.472656 28.917969 L 33.625 28.902344 L 33.773438 28.878906 L 33.925781 28.859375 C 33.972656 28.851562 34.023438 28.839844 34.074219 28.832031 C 34.125 28.820312 34.171875 28.8125 34.222656 28.800781 C 34.621094 28.714844 35.011719 28.589844 35.386719 28.421875 C 35.761719 28.25 36.121094 28.027344 36.441406 27.757812 C 36.484375 27.722656 36.523438 27.6875 36.5625 27.652344 L 36.675781 27.542969 L 36.792969 27.417969 L 36.851562 27.359375 L 36.863281 27.34375 C 36.871094 27.335938 36.871094 27.332031 36.875 27.328125 L 36.898438 27.300781 L 36.984375 27.195312 L 37.007812 27.167969 L 37.023438 27.148438 L 37.039062 27.121094 L 37.085938 27.058594 C 37.101562 27.035156 37.117188 27.015625 37.132812 26.992188 L 37.21875 26.859375 C 37.234375 26.835938 37.246094 26.8125 37.257812 26.792969 C 37.367188 26.609375 37.457031 26.417969 37.53125 26.222656 C 37.605469 26.027344 37.660156 25.828125 37.703125 25.628906 C 37.746094 25.425781 37.773438 25.226562 37.789062 25.023438 C 37.804688 24.824219 37.804688 24.621094 37.796875 24.421875 C 37.785156 24.222656 37.765625 24.027344 37.734375 23.832031 C 37.707031 23.636719 37.664062 23.441406 37.617188 23.253906 C 37.570312 23.0625 37.515625 22.875 37.449219 22.691406 C 37.417969 22.597656 37.382812 22.507812 37.347656 22.417969 L 37.320312 22.347656 L 37.292969 22.28125 C 37.273438 22.234375 37.253906 22.191406 37.234375 22.144531 L 37.203125 22.078125 C 37.195312 22.054688 37.183594 22.03125 37.171875 22.011719 L 37.113281 21.882812 L 36.980469 21.625 C 36.886719 21.457031 36.796875 21.289062 36.695312 21.128906 C 36.5 20.804688 36.292969 20.488281 36.078125 20.183594 C 35.652344 19.574219 35.207031 18.988281 34.796875 18.398438 L 34.644531 18.171875 L 34.5 17.953125 C 34.484375 17.933594 34.472656 17.914062 34.460938 17.894531 L 34.425781 17.835938 L 34.351562 17.71875 L 34.316406 17.660156 L 34.300781 17.636719 L 34.285156 17.609375 L 34.21875 17.496094 C 34.042969 17.191406 33.886719 16.878906 33.78125 16.5625 C 33.671875 16.242188 33.617188 15.917969 33.632812 15.597656 L 33.640625 15.488281 L 33.644531 15.460938 L 33.648438 15.425781 L 33.660156 15.359375 L 33.664062 15.324219 L 33.667969 15.308594 L 33.671875 15.300781 C 33.671875 15.292969 33.667969 15.316406 33.667969 15.304688 L 33.683594 15.25 C 33.6875 15.230469 33.691406 15.210938 33.699219 15.195312 C 33.703125 15.175781 33.710938 15.160156 33.714844 15.140625 C 33.765625 14.996094 33.84375 14.859375 33.9375 14.734375 C 34.128906 14.480469 34.402344 14.277344 34.699219 14.1875 C 34.773438 14.164062 34.851562 14.152344 34.925781 14.144531 C 34.945312 14.144531 34.964844 14.140625 34.984375 14.140625 L 35.039062 14.140625 L 35.097656 14.144531 C 35.117188 14.148438 35.132812 14.148438 35.152344 14.152344 C 35.171875 14.15625 35.191406 14.160156 35.207031 14.164062 L 35.238281 14.167969 L 35.285156 14.183594 C 35.289062 14.183594 35.292969 14.183594 35.296875 14.1875 L 35.371094 14.214844 C 35.378906 14.21875 35.367188 14.210938 35.371094 14.214844 C 35.445312 14.242188 35.511719 14.28125 35.578125 14.328125 C 35.710938 14.417969 35.828125 14.539062 35.9375 14.675781 C 36.046875 14.808594 36.148438 14.960938 36.25 15.109375 C 36.351562 15.261719 36.457031 15.417969 36.578125 15.566406 C 36.636719 15.644531 36.699219 15.714844 36.769531 15.785156 L 36.796875 15.8125 L 36.878906 15.882812 L 36.9375 15.929688 C 36.953125 15.945312 36.972656 15.960938 36.992188 15.976562 C 37.3125 16.210938 37.699219 16.328125 38.082031 16.34375 C 38.273438 16.351562 38.464844 16.332031 38.648438 16.285156 C 38.832031 16.242188 39.007812 16.164062 39.164062 16.066406 " fill-opacity="1" fill-rule="nonzero"/></g></svg>