<svg xmlns="http://www.w3.org/2000/svg" xmlns:xlink="http://www.w3.org/1999/xlink" width="56" zoomAndPan="magnify" viewBox="0 0 42 30.000001" height="40" preserveAspectRatio="xMidYMid meet" version="1.0"><defs><g/><clipPath id="29dc3f9d86"><path d="M 3 0 L 26.660156 0 L 26.660156 29 L 3 29 Z M 3 0 " clip-rule="nonzero"/></clipPath></defs><g clip-path="url(#29dc3f9d86)"><path fill="#000000" d="M 4.394531 9.617188 C 4.691406 10.238281 5.230469 10.691406 5.9375 10.71875 C 6.664062 10.746094 7.179688 10.242188 7.746094 9.855469 C 9.027344 8.980469 10.40625 8.253906 11.828125 7.640625 C 15.019531 6.261719 18.472656 5.410156 21.949219 5.28125 C 23.167969 5.238281 24.949219 5.667969 25.46875 4.15625 C 25.648438 3.632812 25.597656 3.046875 25.289062 2.582031 C 24.921875 2.03125 24.367188 1.871094 23.746094 1.785156 C 20.46875 1.332031 17.0625 1.835938 13.914062 2.785156 C 10.617188 3.78125 7.355469 5.351562 4.824219 7.742188 C 4.21875 8.316406 3.308594 7.398438 3.914062 6.828125 C 6.449219 4.429688 9.65625 2.804688 12.941406 1.730469 C 16.46875 0.578125 20.308594 0 24.003906 0.519531 C 25.554688 0.738281 26.832031 1.8125 26.859375 3.488281 C 26.878906 4.675781 26.199219 5.765625 25.183594 6.277344 C 25.125 6.320312 25.058594 6.351562 24.980469 6.371094 C 24.777344 6.453125 24.566406 6.515625 24.34375 6.550781 C 23.507812 6.679688 22.617188 6.550781 21.773438 6.585938 C 20.816406 6.628906 19.863281 6.730469 18.921875 6.886719 C 16.921875 7.21875 14.957031 7.769531 13.074219 8.515625 C 11.242188 9.242188 9.480469 10.175781 7.882812 11.335938 C 7.605469 11.539062 7.304688 11.691406 6.996094 11.796875 C 7.550781 12.394531 8.101562 12.992188 8.652344 13.589844 C 8.828125 12.710938 9.449219 11.960938 10.371094 11.679688 C 11.664062 11.292969 13.070312 12.089844 13.445312 13.386719 C 13.828125 14.695312 13.046875 16.109375 11.753906 16.492188 C 11.636719 16.527344 11.515625 16.550781 11.394531 16.570312 C 11.441406 16.621094 11.488281 16.671875 11.535156 16.722656 C 14.296875 19.71875 17.054688 22.710938 19.816406 25.707031 C 20.164062 26.082031 20.507812 26.460938 20.855469 26.835938 C 21.164062 25.0625 21.476562 23.285156 21.78125 21.511719 C 22.386719 18.050781 22.988281 14.589844 23.589844 11.132812 C 23.726562 10.332031 23.867188 9.535156 24.003906 8.738281 C 24.148438 7.914062 25.386719 8.261719 25.246094 9.082031 C 24.867188 11.265625 24.484375 13.445312 24.105469 15.628906 C 23.503906 19.089844 22.902344 22.550781 22.300781 26.007812 C 22.164062 26.808594 22.023438 27.605469 21.882812 28.402344 C 21.800781 28.886719 21.121094 29.027344 20.808594 28.691406 C 19.070312 26.800781 17.328125 24.914062 15.589844 23.023438 C 12.828125 20.03125 10.070312 17.035156 7.3125 14.042969 C 6.675781 13.351562 6.042969 12.664062 5.40625 11.976562 C 5.386719 11.957031 5.371094 11.933594 5.355469 11.914062 C 4.496094 11.738281 3.71875 11.1875 3.285156 10.269531 C 2.925781 9.523438 4.035156 8.863281 4.394531 9.617188 Z M 12.207031 13.734375 C 11.75 12.246094 9.539062 12.929688 9.921875 14.441406 C 10.417969 15.921875 12.664062 15.214844 12.207031 13.734375 Z M 12.207031 13.734375 " fill-opacity="1" fill-rule="nonzero"/></g><path fill="#000000" d="M 18.898438 7.878906 C 20.191406 7.488281 21.597656 8.285156 21.972656 9.582031 C 22.355469 10.890625 21.574219 12.304688 20.28125 12.6875 C 19 13.066406 17.738281 12.328125 17.261719 11.128906 C 17.238281 11.082031 17.21875 11.035156 17.207031 10.980469 C 17.1875 10.929688 17.179688 10.878906 17.171875 10.828125 C 16.929688 9.550781 17.625 8.261719 18.898438 7.878906 Z M 20.734375 9.929688 C 20.277344 8.441406 18.066406 9.125 18.445312 10.636719 C 18.945312 12.117188 21.191406 11.410156 20.734375 9.929688 Z M 20.734375 9.929688 " fill-opacity="1" fill-rule="nonzero"/><path fill="#000000" d="M 20.027344 18.820312 C 20.027344 20.183594 18.894531 21.328125 17.542969 21.328125 C 16.210938 21.328125 15.195312 20.269531 15.074219 18.976562 C 15.066406 18.929688 15.058594 18.878906 15.0625 18.824219 C 15.058594 18.765625 15.066406 18.714844 15.074219 18.667969 C 15.195312 17.375 16.210938 16.324219 17.546875 16.320312 C 18.894531 16.3125 20.027344 17.464844 20.027344 18.820312 Z M 16.347656 18.820312 C 16.40625 20.382812 18.742188 20.375 18.742188 18.820312 C 18.742188 17.269531 16.410156 17.257812 16.347656 18.820312 Z M 16.347656 18.820312 " fill-opacity="1" fill-rule="nonzero"/><g fill="#000000" fill-opacity="1"><g transform="translate(27.416582, 20.348012)"><g><path d="M 1.578125 0.03125 C 1.328125 0.03125 1.101562 -0.0078125 0.90625 -0.09375 C 0.71875 -0.175781 0.566406 -0.296875 0.453125 -0.453125 C 0.347656 -0.609375 0.296875 -0.789062 0.296875 -1 L 0.9375 -1 C 0.945312 -0.84375 1.003906 -0.710938 1.109375 -0.609375 C 1.222656 -0.503906 1.378906 -0.453125 1.578125 -0.453125 C 1.773438 -0.453125 1.929688 -0.5 2.046875 -0.59375 C 2.160156 -0.695312 2.21875 -0.828125 2.21875 -0.984375 C 2.21875 -1.109375 2.179688 -1.207031 2.109375 -1.28125 C 2.035156 -1.351562 1.945312 -1.410156 1.84375 -1.453125 C 1.738281 -1.492188 1.59375 -1.539062 1.40625 -1.59375 C 1.175781 -1.65625 0.988281 -1.71875 0.84375 -1.78125 C 0.695312 -1.84375 0.570312 -1.941406 0.46875 -2.078125 C 0.363281 -2.210938 0.3125 -2.390625 0.3125 -2.609375 C 0.3125 -2.816406 0.363281 -3 0.46875 -3.15625 C 0.570312 -3.3125 0.710938 -3.429688 0.890625 -3.515625 C 1.078125 -3.597656 1.296875 -3.640625 1.546875 -3.640625 C 1.890625 -3.640625 2.171875 -3.550781 2.390625 -3.375 C 2.617188 -3.207031 2.742188 -2.96875 2.765625 -2.65625 L 2.125 -2.65625 C 2.113281 -2.789062 2.050781 -2.90625 1.9375 -3 C 1.820312 -3.09375 1.671875 -3.140625 1.484375 -3.140625 C 1.316406 -3.140625 1.175781 -3.09375 1.0625 -3 C 0.957031 -2.914062 0.90625 -2.796875 0.90625 -2.640625 C 0.90625 -2.523438 0.9375 -2.429688 1 -2.359375 C 1.070312 -2.296875 1.160156 -2.242188 1.265625 -2.203125 C 1.367188 -2.160156 1.507812 -2.113281 1.6875 -2.0625 C 1.925781 -2 2.117188 -1.929688 2.265625 -1.859375 C 2.421875 -1.796875 2.550781 -1.695312 2.65625 -1.5625 C 2.757812 -1.425781 2.8125 -1.242188 2.8125 -1.015625 C 2.8125 -0.835938 2.757812 -0.664062 2.65625 -0.5 C 2.5625 -0.34375 2.421875 -0.210938 2.234375 -0.109375 C 2.046875 -0.015625 1.828125 0.03125 1.578125 0.03125 Z M 1.578125 0.03125 "/></g></g></g><g fill="#000000" fill-opacity="1"><g transform="translate(30.244594, 20.348012)"><g><path d="M 4.21875 -2.84375 L 3.328125 0 L 2.703125 0 L 2.140625 -2.109375 L 1.5625 0 L 0.9375 0 L 0.046875 -2.84375 L 0.65625 -2.84375 L 1.25 -0.5625 L 1.84375 -2.84375 L 2.46875 -2.84375 L 3.046875 -0.5625 L 3.640625 -2.84375 Z M 4.21875 -2.84375 "/></g></g></g><g fill="#000000" fill-opacity="1"><g transform="translate(34.217279, 20.348012)"><g><path d="M 0.1875 -1.4375 C 0.1875 -1.71875 0.242188 -1.96875 0.359375 -2.1875 C 0.484375 -2.414062 0.644531 -2.585938 0.84375 -2.703125 C 1.050781 -2.828125 1.28125 -2.890625 1.53125 -2.890625 C 1.757812 -2.890625 1.957031 -2.84375 2.125 -2.75 C 2.289062 -2.664062 2.425781 -2.5625 2.53125 -2.4375 L 2.53125 -2.84375 L 3.125 -2.84375 L 3.125 0 L 2.53125 0 L 2.53125 -0.421875 C 2.425781 -0.285156 2.285156 -0.171875 2.109375 -0.078125 C 1.941406 0.00390625 1.75 0.046875 1.53125 0.046875 C 1.28125 0.046875 1.050781 -0.015625 0.84375 -0.140625 C 0.644531 -0.265625 0.484375 -0.441406 0.359375 -0.671875 C 0.242188 -0.898438 0.1875 -1.15625 0.1875 -1.4375 Z M 2.53125 -1.421875 C 2.53125 -1.617188 2.488281 -1.789062 2.40625 -1.9375 C 2.320312 -2.082031 2.210938 -2.191406 2.078125 -2.265625 C 1.953125 -2.347656 1.8125 -2.390625 1.65625 -2.390625 C 1.507812 -2.390625 1.367188 -2.347656 1.234375 -2.265625 C 1.109375 -2.191406 1.003906 -2.082031 0.921875 -1.9375 C 0.835938 -1.800781 0.796875 -1.632812 0.796875 -1.4375 C 0.796875 -1.238281 0.835938 -1.066406 0.921875 -0.921875 C 1.003906 -0.773438 1.109375 -0.660156 1.234375 -0.578125 C 1.367188 -0.503906 1.507812 -0.46875 1.65625 -0.46875 C 1.8125 -0.46875 1.953125 -0.503906 2.078125 -0.578125 C 2.210938 -0.648438 2.320312 -0.757812 2.40625 -0.90625 C 2.488281 -1.050781 2.53125 -1.222656 2.53125 -1.421875 Z M 2.53125 -1.421875 "/></g></g></g><g fill="#000000" fill-opacity="1"><g transform="translate(37.428577, 20.348012)"><g><path d="M 1.828125 -2.890625 C 2.046875 -2.890625 2.242188 -2.84375 2.421875 -2.75 C 2.597656 -2.65625 2.738281 -2.515625 2.84375 -2.328125 C 2.945312 -2.148438 3 -1.9375 3 -1.6875 L 3 0 L 2.40625 0 L 2.40625 -1.59375 C 2.40625 -1.84375 2.34375 -2.035156 2.21875 -2.171875 C 2.09375 -2.316406 1.921875 -2.390625 1.703125 -2.390625 C 1.472656 -2.390625 1.296875 -2.316406 1.171875 -2.171875 C 1.046875 -2.035156 0.984375 -1.84375 0.984375 -1.59375 L 0.984375 0 L 0.390625 0 L 0.390625 -2.84375 L 0.984375 -2.84375 L 0.984375 -2.53125 C 1.078125 -2.644531 1.195312 -2.734375 1.34375 -2.796875 C 1.5 -2.859375 1.660156 -2.890625 1.828125 -2.890625 Z M 1.828125 -2.890625 "/></g></g></g><g fill="#000000" fill-opacity="1"><g transform="translate(29.844459, 23.800993)"><g><path d="M 0.1875 -1.421875 C 0.1875 -1.710938 0.242188 -1.96875 0.359375 -2.1875 C 0.484375 -2.414062 0.648438 -2.585938 0.859375 -2.703125 C 1.066406 -2.828125 1.3125 -2.890625 1.59375 -2.890625 C 1.9375 -2.890625 2.21875 -2.804688 2.4375 -2.640625 C 2.664062 -2.484375 2.820312 -2.253906 2.90625 -1.953125 L 2.265625 -1.953125 C 2.210938 -2.085938 2.128906 -2.195312 2.015625 -2.28125 C 1.898438 -2.363281 1.757812 -2.40625 1.59375 -2.40625 C 1.34375 -2.40625 1.144531 -2.316406 1 -2.140625 C 0.863281 -1.972656 0.796875 -1.734375 0.796875 -1.421875 C 0.796875 -1.117188 0.863281 -0.878906 1 -0.703125 C 1.144531 -0.535156 1.34375 -0.453125 1.59375 -0.453125 C 1.925781 -0.453125 2.148438 -0.601562 2.265625 -0.90625 L 2.90625 -0.90625 C 2.820312 -0.613281 2.664062 -0.378906 2.4375 -0.203125 C 2.207031 -0.0351562 1.925781 0.046875 1.59375 0.046875 C 1.3125 0.046875 1.066406 -0.015625 0.859375 -0.140625 C 0.648438 -0.265625 0.484375 -0.4375 0.359375 -0.65625 C 0.242188 -0.875 0.1875 -1.128906 0.1875 -1.421875 Z M 0.1875 -1.421875 "/></g></g></g><g fill="#000000" fill-opacity="1"><g transform="translate(32.651758, 23.800993)"><g><path d="M 0.6875 -3.234375 C 0.582031 -3.234375 0.492188 -3.265625 0.421875 -3.328125 C 0.347656 -3.398438 0.3125 -3.492188 0.3125 -3.609375 C 0.3125 -3.710938 0.347656 -3.800781 0.421875 -3.875 C 0.492188 -3.945312 0.582031 -3.984375 0.6875 -3.984375 C 0.789062 -3.984375 0.878906 -3.945312 0.953125 -3.875 C 1.023438 -3.800781 1.0625 -3.710938 1.0625 -3.609375 C 1.0625 -3.492188 1.023438 -3.398438 0.953125 -3.328125 C 0.878906 -3.265625 0.789062 -3.234375 0.6875 -3.234375 Z M 0.984375 -2.84375 L 0.984375 0 L 0.390625 0 L 0.390625 -2.84375 Z M 0.984375 -2.84375 "/></g></g></g><g fill="#000000" fill-opacity="1"><g transform="translate(33.718742, 23.800993)"><g><path d="M 1.078125 -2.375 L 1.078125 -0.796875 C 1.078125 -0.679688 1.097656 -0.597656 1.140625 -0.546875 C 1.191406 -0.503906 1.28125 -0.484375 1.40625 -0.484375 L 1.765625 -0.484375 L 1.765625 0 L 1.296875 0 C 1.035156 0 0.832031 -0.0625 0.6875 -0.1875 C 0.550781 -0.3125 0.484375 -0.515625 0.484375 -0.796875 L 0.484375 -2.375 L 0.140625 -2.375 L 0.140625 -2.84375 L 0.484375 -2.84375 L 0.484375 -3.5625 L 1.078125 -3.5625 L 1.078125 -2.84375 L 1.765625 -2.84375 L 1.765625 -2.375 Z M 1.078125 -2.375 "/></g></g></g><g fill="#000000" fill-opacity="1"><g transform="translate(35.345111, 23.800993)"><g><path d="M 2.953125 -2.84375 L 1.203125 1.34375 L 0.59375 1.34375 L 1.171875 -0.046875 L 0.046875 -2.84375 L 0.703125 -2.84375 L 1.515625 -0.671875 L 2.34375 -2.84375 Z M 2.953125 -2.84375 "/></g></g></g><g fill="#000000" fill-opacity="1"><g transform="translate(28.07076, 27.253974)"><g><path d="M 0.984375 -2.4375 C 1.078125 -2.5625 1.207031 -2.664062 1.375 -2.75 C 1.550781 -2.84375 1.75 -2.890625 1.96875 -2.890625 C 2.21875 -2.890625 2.441406 -2.828125 2.640625 -2.703125 C 2.847656 -2.585938 3.007812 -2.414062 3.125 -2.1875 C 3.25 -1.96875 3.3125 -1.71875 3.3125 -1.4375 C 3.3125 -1.15625 3.25 -0.898438 3.125 -0.671875 C 3.007812 -0.441406 2.847656 -0.265625 2.640625 -0.140625 C 2.441406 -0.015625 2.21875 0.046875 1.96875 0.046875 C 1.75 0.046875 1.554688 0.00390625 1.390625 -0.078125 C 1.222656 -0.171875 1.085938 -0.28125 0.984375 -0.40625 L 0.984375 1.359375 L 0.390625 1.359375 L 0.390625 -2.84375 L 0.984375 -2.84375 Z M 2.703125 -1.4375 C 2.703125 -1.632812 2.660156 -1.800781 2.578125 -1.9375 C 2.503906 -2.082031 2.398438 -2.191406 2.265625 -2.265625 C 2.128906 -2.347656 1.988281 -2.390625 1.84375 -2.390625 C 1.695312 -2.390625 1.554688 -2.347656 1.421875 -2.265625 C 1.285156 -2.191406 1.175781 -2.082031 1.09375 -1.9375 C 1.019531 -1.789062 0.984375 -1.617188 0.984375 -1.421875 C 0.984375 -1.222656 1.019531 -1.050781 1.09375 -0.90625 C 1.175781 -0.757812 1.285156 -0.648438 1.421875 -0.578125 C 1.554688 -0.503906 1.695312 -0.46875 1.84375 -0.46875 C 1.988281 -0.46875 2.128906 -0.503906 2.265625 -0.578125 C 2.398438 -0.660156 2.503906 -0.773438 2.578125 -0.921875 C 2.660156 -1.066406 2.703125 -1.238281 2.703125 -1.4375 Z M 2.703125 -1.4375 "/></g></g></g><g fill="#000000" fill-opacity="1"><g transform="translate(31.282059, 27.253974)"><g><path d="M 0.6875 -3.234375 C 0.582031 -3.234375 0.492188 -3.265625 0.421875 -3.328125 C 0.347656 -3.398438 0.3125 -3.492188 0.3125 -3.609375 C 0.3125 -3.710938 0.347656 -3.800781 0.421875 -3.875 C 0.492188 -3.945312 0.582031 -3.984375 0.6875 -3.984375 C 0.789062 -3.984375 0.878906 -3.945312 0.953125 -3.875 C 1.023438 -3.800781 1.0625 -3.710938 1.0625 -3.609375 C 1.0625 -3.492188 1.023438 -3.398438 0.953125 -3.328125 C 0.878906 -3.265625 0.789062 -3.234375 0.6875 -3.234375 Z M 0.984375 -2.84375 L 0.984375 0 L 0.390625 0 L 0.390625 -2.84375 Z M 0.984375 -2.84375 "/></g></g></g><g fill="#000000" fill-opacity="1"><g transform="translate(32.349043, 27.253974)"><g><path d="M 0.90625 -0.484375 L 2.203125 -0.484375 L 2.203125 0 L 0.234375 0 L 0.234375 -0.484375 L 1.53125 -2.375 L 0.234375 -2.375 L 0.234375 -2.84375 L 2.203125 -2.84375 L 2.203125 -2.375 Z M 0.90625 -0.484375 "/></g></g></g><g fill="#000000" fill-opacity="1"><g transform="translate(34.488182, 27.253974)"><g><path d="M 0.90625 -0.484375 L 2.203125 -0.484375 L 2.203125 0 L 0.234375 0 L 0.234375 -0.484375 L 1.53125 -2.375 L 0.234375 -2.375 L 0.234375 -2.84375 L 2.203125 -2.84375 L 2.203125 -2.375 Z M 0.90625 -0.484375 "/></g></g></g><g fill="#000000" fill-opacity="1"><g transform="translate(36.62732, 27.253974)"><g><path d="M 0.1875 -1.4375 C 0.1875 -1.71875 0.242188 -1.96875 0.359375 -2.1875 C 0.484375 -2.414062 0.644531 -2.585938 0.84375 -2.703125 C 1.050781 -2.828125 1.28125 -2.890625 1.53125 -2.890625 C 1.757812 -2.890625 1.957031 -2.84375 2.125 -2.75 C 2.289062 -2.664062 2.425781 -2.5625 2.53125 -2.4375 L 2.53125 -2.84375 L 3.125 -2.84375 L 3.125 0 L 2.53125 0 L 2.53125 -0.421875 C 2.425781 -0.285156 2.285156 -0.171875 2.109375 -0.078125 C 1.941406 0.00390625 1.75 0.046875 1.53125 0.046875 C 1.28125 0.046875 1.050781 -0.015625 0.84375 -0.140625 C 0.644531 -0.265625 0.484375 -0.441406 0.359375 -0.671875 C 0.242188 -0.898438 0.1875 -1.15625 0.1875 -1.4375 Z M 2.53125 -1.421875 C 2.53125 -1.617188 2.488281 -1.789062 2.40625 -1.9375 C 2.320312 -2.082031 2.210938 -2.191406 2.078125 -2.265625 C 1.953125 -2.347656 1.8125 -2.390625 1.65625 -2.390625 C 1.507812 -2.390625 1.367188 -2.347656 1.234375 -2.265625 C 1.109375 -2.191406 1.003906 -2.082031 0.921875 -1.9375 C 0.835938 -1.800781 0.796875 -1.632812 0.796875 -1.4375 C 0.796875 -1.238281 0.835938 -1.066406 0.921875 -0.921875 C 1.003906 -0.773438 1.109375 -0.660156 1.234375 -0.578125 C 1.367188 -0.503906 1.507812 -0.46875 1.65625 -0.46875 C 1.8125 -0.46875 1.953125 -0.503906 2.078125 -0.578125 C 2.210938 -0.648438 2.320312 -0.757812 2.40625 -0.90625 C 2.488281 -1.050781 2.53125 -1.222656 2.53125 -1.421875 Z M 2.53125 -1.421875 "/></g></g></g></svg>