<svg xmlns="http://www.w3.org/2000/svg" xmlns:xlink="http://www.w3.org/1999/xlink" width="70" zoomAndPan="magnify" viewBox="0 0 52.5 52.499999" height="70" preserveAspectRatio="xMidYMid meet" version="1.0"><defs><g/><clipPath id="bdaca9a2a6"><path d="M 16 44 L 22 44 L 22 52.003906 L 16 52.003906 Z M 16 44 " clip-rule="nonzero"/></clipPath><clipPath id="9105ae6f25"><path d="M 0 0 L 31.5 0 L 31.5 37.5 L 0 37.5 Z M 0 0 " clip-rule="nonzero"/></clipPath></defs><g fill="#000000" fill-opacity="1"><g transform="translate(20.598953, 30.407995)"><g><path d="M 3.15625 0.078125 C 2.675781 0.078125 2.238281 -0.00390625 1.84375 -0.171875 C 1.457031 -0.347656 1.15625 -0.59375 0.9375 -0.90625 C 0.71875 -1.21875 0.609375 -1.582031 0.609375 -2 L 1.875 -2 C 1.894531 -1.6875 2.015625 -1.425781 2.234375 -1.21875 C 2.453125 -1.019531 2.757812 -0.921875 3.15625 -0.921875 C 3.5625 -0.921875 3.878906 -1.019531 4.109375 -1.21875 C 4.335938 -1.414062 4.453125 -1.671875 4.453125 -1.984375 C 4.453125 -2.222656 4.378906 -2.421875 4.234375 -2.578125 C 4.097656 -2.734375 3.921875 -2.851562 3.703125 -2.9375 C 3.492188 -3.019531 3.207031 -3.109375 2.84375 -3.203125 C 2.363281 -3.328125 1.976562 -3.453125 1.6875 -3.578125 C 1.394531 -3.703125 1.144531 -3.898438 0.9375 -4.171875 C 0.726562 -4.441406 0.625 -4.800781 0.625 -5.25 C 0.625 -5.664062 0.726562 -6.03125 0.9375 -6.34375 C 1.144531 -6.65625 1.4375 -6.894531 1.8125 -7.0625 C 2.1875 -7.226562 2.617188 -7.3125 3.109375 -7.3125 C 3.804688 -7.3125 4.378906 -7.132812 4.828125 -6.78125 C 5.273438 -6.4375 5.519531 -5.957031 5.5625 -5.34375 L 4.265625 -5.34375 C 4.242188 -5.613281 4.117188 -5.84375 3.890625 -6.03125 C 3.660156 -6.21875 3.359375 -6.3125 2.984375 -6.3125 C 2.640625 -6.3125 2.359375 -6.222656 2.140625 -6.046875 C 1.929688 -5.867188 1.828125 -5.617188 1.828125 -5.296875 C 1.828125 -5.078125 1.894531 -4.894531 2.03125 -4.75 C 2.164062 -4.613281 2.335938 -4.503906 2.546875 -4.421875 C 2.753906 -4.335938 3.035156 -4.242188 3.390625 -4.140625 C 3.867188 -4.015625 4.257812 -3.882812 4.5625 -3.75 C 4.863281 -3.613281 5.117188 -3.410156 5.328125 -3.140625 C 5.546875 -2.867188 5.65625 -2.503906 5.65625 -2.046875 C 5.65625 -1.679688 5.554688 -1.332031 5.359375 -1 C 5.160156 -0.675781 4.867188 -0.414062 4.484375 -0.21875 C 4.109375 -0.0195312 3.664062 0.078125 3.15625 0.078125 Z M 3.15625 0.078125 "/></g></g></g><g fill="#000000" fill-opacity="1"><g transform="translate(26.274003, 30.407995)"><g><path d="M 8.46875 -5.71875 L 6.6875 0 L 5.4375 0 L 4.296875 -4.234375 L 3.140625 0 L 1.890625 0 L 0.109375 -5.71875 L 1.3125 -5.71875 L 2.5 -1.125 L 3.71875 -5.71875 L 4.953125 -5.71875 L 6.125 -1.140625 L 7.296875 -5.71875 Z M 8.46875 -5.71875 "/></g></g></g><g fill="#000000" fill-opacity="1"><g transform="translate(34.246224, 30.407995)"><g><path d="M 0.390625 -2.890625 C 0.390625 -3.460938 0.503906 -3.96875 0.734375 -4.40625 C 0.972656 -4.851562 1.300781 -5.195312 1.71875 -5.4375 C 2.132812 -5.6875 2.59375 -5.8125 3.09375 -5.8125 C 3.539062 -5.8125 3.929688 -5.722656 4.265625 -5.546875 C 4.597656 -5.367188 4.867188 -5.148438 5.078125 -4.890625 L 5.078125 -5.71875 L 6.265625 -5.71875 L 6.265625 0 L 5.078125 0 L 5.078125 -0.859375 C 4.867188 -0.585938 4.59375 -0.359375 4.25 -0.171875 C 3.90625 0.00390625 3.507812 0.09375 3.0625 0.09375 C 2.570312 0.09375 2.117188 -0.03125 1.703125 -0.28125 C 1.296875 -0.539062 0.972656 -0.894531 0.734375 -1.34375 C 0.503906 -1.800781 0.390625 -2.316406 0.390625 -2.890625 Z M 5.078125 -2.875 C 5.078125 -3.257812 4.992188 -3.597656 4.828125 -3.890625 C 4.660156 -4.179688 4.445312 -4.40625 4.1875 -4.5625 C 3.925781 -4.71875 3.640625 -4.796875 3.328125 -4.796875 C 3.023438 -4.796875 2.742188 -4.71875 2.484375 -4.5625 C 2.222656 -4.414062 2.007812 -4.195312 1.84375 -3.90625 C 1.675781 -3.625 1.59375 -3.285156 1.59375 -2.890625 C 1.59375 -2.492188 1.675781 -2.144531 1.84375 -1.84375 C 2.007812 -1.550781 2.222656 -1.328125 2.484375 -1.171875 C 2.753906 -1.015625 3.035156 -0.9375 3.328125 -0.9375 C 3.640625 -0.9375 3.925781 -1.007812 4.1875 -1.15625 C 4.445312 -1.3125 4.660156 -1.535156 4.828125 -1.828125 C 4.992188 -2.128906 5.078125 -2.476562 5.078125 -2.875 Z M 5.078125 -2.875 "/></g></g></g><g fill="#000000" fill-opacity="1"><g transform="translate(40.690465, 30.407995)"><g><path d="M 3.671875 -5.8125 C 4.117188 -5.8125 4.519531 -5.71875 4.875 -5.53125 C 5.226562 -5.34375 5.503906 -5.066406 5.703125 -4.703125 C 5.910156 -4.335938 6.015625 -3.894531 6.015625 -3.375 L 6.015625 0 L 4.84375 0 L 4.84375 -3.203125 C 4.84375 -3.710938 4.710938 -4.101562 4.453125 -4.375 C 4.203125 -4.65625 3.851562 -4.796875 3.40625 -4.796875 C 2.96875 -4.796875 2.617188 -4.65625 2.359375 -4.375 C 2.097656 -4.101562 1.96875 -3.710938 1.96875 -3.203125 L 1.96875 0 L 0.78125 0 L 0.78125 -5.71875 L 1.96875 -5.71875 L 1.96875 -5.078125 C 2.15625 -5.304688 2.398438 -5.484375 2.703125 -5.609375 C 3.003906 -5.742188 3.328125 -5.8125 3.671875 -5.8125 Z M 3.671875 -5.8125 "/></g></g></g><g fill="#000000" fill-opacity="1"><g transform="translate(25.473953, 40.157994)"><g><path d="M 0.390625 -2.875 C 0.390625 -3.457031 0.503906 -3.972656 0.734375 -4.421875 C 0.972656 -4.867188 1.304688 -5.210938 1.734375 -5.453125 C 2.160156 -5.691406 2.644531 -5.8125 3.1875 -5.8125 C 3.882812 -5.8125 4.457031 -5.644531 4.90625 -5.3125 C 5.363281 -4.988281 5.671875 -4.523438 5.828125 -3.921875 L 4.546875 -3.921875 C 4.441406 -4.203125 4.273438 -4.421875 4.046875 -4.578125 C 3.816406 -4.742188 3.53125 -4.828125 3.1875 -4.828125 C 2.707031 -4.828125 2.320312 -4.65625 2.03125 -4.3125 C 1.738281 -3.96875 1.59375 -3.488281 1.59375 -2.875 C 1.59375 -2.25 1.738281 -1.765625 2.03125 -1.421875 C 2.320312 -1.078125 2.707031 -0.90625 3.1875 -0.90625 C 3.875 -0.90625 4.328125 -1.207031 4.546875 -1.8125 L 5.828125 -1.8125 C 5.660156 -1.226562 5.347656 -0.765625 4.890625 -0.421875 C 4.429688 -0.078125 3.863281 0.09375 3.1875 0.09375 C 2.644531 0.09375 2.160156 -0.0234375 1.734375 -0.265625 C 1.304688 -0.515625 0.972656 -0.863281 0.734375 -1.3125 C 0.503906 -1.757812 0.390625 -2.28125 0.390625 -2.875 Z M 0.390625 -2.875 "/></g></g></g><g fill="#000000" fill-opacity="1"><g transform="translate(31.107426, 40.157994)"><g><path d="M 1.375 -6.484375 C 1.164062 -6.484375 0.988281 -6.554688 0.84375 -6.703125 C 0.695312 -6.847656 0.625 -7.03125 0.625 -7.25 C 0.625 -7.457031 0.695312 -7.632812 0.84375 -7.78125 C 0.988281 -7.925781 1.164062 -8 1.375 -8 C 1.582031 -8 1.757812 -7.925781 1.90625 -7.78125 C 2.050781 -7.632812 2.125 -7.457031 2.125 -7.25 C 2.125 -7.03125 2.050781 -6.847656 1.90625 -6.703125 C 1.757812 -6.554688 1.582031 -6.484375 1.375 -6.484375 Z M 1.96875 -5.71875 L 1.96875 0 L 0.78125 0 L 0.78125 -5.71875 Z M 1.96875 -5.71875 "/></g></g></g><g fill="#000000" fill-opacity="1"><g transform="translate(33.248357, 40.157994)"><g><path d="M 2.15625 -4.765625 L 2.15625 -1.59375 C 2.15625 -1.375 2.207031 -1.21875 2.3125 -1.125 C 2.414062 -1.03125 2.585938 -0.984375 2.828125 -0.984375 L 3.546875 -0.984375 L 3.546875 0 L 2.625 0 C 2.082031 0 1.671875 -0.125 1.390625 -0.375 C 1.109375 -0.625 0.96875 -1.03125 0.96875 -1.59375 L 0.96875 -4.765625 L 0.296875 -4.765625 L 0.296875 -5.71875 L 0.96875 -5.71875 L 0.96875 -7.15625 L 2.15625 -7.15625 L 2.15625 -5.71875 L 3.546875 -5.71875 L 3.546875 -4.765625 Z M 2.15625 -4.765625 "/></g></g></g><g fill="#000000" fill-opacity="1"><g transform="translate(36.511896, 40.157994)"><g><path d="M 5.9375 -5.71875 L 2.421875 2.6875 L 1.1875 2.6875 L 2.359375 -0.09375 L 0.109375 -5.71875 L 1.421875 -5.71875 L 3.03125 -1.359375 L 4.703125 -5.71875 Z M 5.9375 -5.71875 "/></g></g></g><g clip-path="url(#bdaca9a2a6)"><g fill="#000000" fill-opacity="1"><g transform="translate(15.231766, 49.907993)"><g><path d="M 1.96875 -4.890625 C 2.164062 -5.148438 2.4375 -5.367188 2.78125 -5.546875 C 3.125 -5.722656 3.515625 -5.8125 3.953125 -5.8125 C 4.453125 -5.8125 4.90625 -5.6875 5.3125 -5.4375 C 5.726562 -5.195312 6.054688 -4.851562 6.296875 -4.40625 C 6.535156 -3.96875 6.65625 -3.460938 6.65625 -2.890625 C 6.65625 -2.316406 6.535156 -1.800781 6.296875 -1.34375 C 6.054688 -0.894531 5.726562 -0.539062 5.3125 -0.28125 C 4.90625 -0.03125 4.453125 0.09375 3.953125 0.09375 C 3.515625 0.09375 3.125 0.00390625 2.78125 -0.171875 C 2.445312 -0.347656 2.175781 -0.566406 1.96875 -0.828125 L 1.96875 2.71875 L 0.78125 2.71875 L 0.78125 -5.71875 L 1.96875 -5.71875 Z M 5.4375 -2.890625 C 5.4375 -3.285156 5.351562 -3.625 5.1875 -3.90625 C 5.03125 -4.195312 4.816406 -4.414062 4.546875 -4.5625 C 4.285156 -4.71875 4.003906 -4.796875 3.703125 -4.796875 C 3.398438 -4.796875 3.113281 -4.71875 2.84375 -4.5625 C 2.582031 -4.40625 2.367188 -4.179688 2.203125 -3.890625 C 2.046875 -3.597656 1.96875 -3.257812 1.96875 -2.875 C 1.96875 -2.476562 2.046875 -2.128906 2.203125 -1.828125 C 2.367188 -1.535156 2.582031 -1.3125 2.84375 -1.15625 C 3.113281 -1.007812 3.398438 -0.9375 3.703125 -0.9375 C 4.003906 -0.9375 4.285156 -1.015625 4.546875 -1.171875 C 4.816406 -1.328125 5.03125 -1.550781 5.1875 -1.84375 C 5.351562 -2.144531 5.4375 -2.492188 5.4375 -2.890625 Z M 5.4375 -2.890625 "/></g></g></g></g><g fill="#000000" fill-opacity="1"><g transform="translate(21.676007, 49.907993)"><g><path d="M 1.375 -6.484375 C 1.164062 -6.484375 0.988281 -6.554688 0.84375 -6.703125 C 0.695312 -6.847656 0.625 -7.03125 0.625 -7.25 C 0.625 -7.457031 0.695312 -7.632812 0.84375 -7.78125 C 0.988281 -7.925781 1.164062 -8 1.375 -8 C 1.582031 -8 1.757812 -7.925781 1.90625 -7.78125 C 2.050781 -7.632812 2.125 -7.457031 2.125 -7.25 C 2.125 -7.03125 2.050781 -6.847656 1.90625 -6.703125 C 1.757812 -6.554688 1.582031 -6.484375 1.375 -6.484375 Z M 1.96875 -5.71875 L 1.96875 0 L 0.78125 0 L 0.78125 -5.71875 Z M 1.96875 -5.71875 "/></g></g></g><g fill="#000000" fill-opacity="1"><g transform="translate(23.816938, 49.907993)"><g><path d="M 1.828125 -0.96875 L 4.421875 -0.96875 L 4.421875 0 L 0.453125 0 L 0.453125 -0.96875 L 3.0625 -4.765625 L 0.453125 -4.765625 L 0.453125 -5.71875 L 4.421875 -5.71875 L 4.421875 -4.765625 Z M 1.828125 -0.96875 "/></g></g></g><g fill="#000000" fill-opacity="1"><g transform="translate(28.109518, 49.907993)"><g><path d="M 1.828125 -0.96875 L 4.421875 -0.96875 L 4.421875 0 L 0.453125 0 L 0.453125 -0.96875 L 3.0625 -4.765625 L 0.453125 -4.765625 L 0.453125 -5.71875 L 4.421875 -5.71875 L 4.421875 -4.765625 Z M 1.828125 -0.96875 "/></g></g></g><g fill="#000000" fill-opacity="1"><g transform="translate(32.402099, 49.907993)"><g><path d="M 6.03125 -3 C 6.03125 -2.789062 6.015625 -2.597656 5.984375 -2.421875 L 1.609375 -2.421875 C 1.640625 -1.960938 1.804688 -1.59375 2.109375 -1.3125 C 2.421875 -1.039062 2.796875 -0.90625 3.234375 -0.90625 C 3.878906 -0.90625 4.332031 -1.171875 4.59375 -1.703125 L 5.875 -1.703125 C 5.695312 -1.179688 5.378906 -0.75 4.921875 -0.40625 C 4.472656 -0.0703125 3.910156 0.09375 3.234375 0.09375 C 2.691406 0.09375 2.203125 -0.0234375 1.765625 -0.265625 C 1.335938 -0.515625 1 -0.863281 0.75 -1.3125 C 0.507812 -1.757812 0.390625 -2.28125 0.390625 -2.875 C 0.390625 -3.457031 0.503906 -3.972656 0.734375 -4.421875 C 0.972656 -4.867188 1.3125 -5.210938 1.75 -5.453125 C 2.1875 -5.691406 2.679688 -5.8125 3.234375 -5.8125 C 3.773438 -5.8125 4.253906 -5.691406 4.671875 -5.453125 C 5.097656 -5.222656 5.429688 -4.894531 5.671875 -4.46875 C 5.910156 -4.039062 6.03125 -3.550781 6.03125 -3 Z M 4.796875 -3.375 C 4.785156 -3.8125 4.625 -4.160156 4.3125 -4.421875 C 4.007812 -4.691406 3.632812 -4.828125 3.1875 -4.828125 C 2.78125 -4.828125 2.429688 -4.695312 2.140625 -4.4375 C 1.847656 -4.175781 1.675781 -3.820312 1.625 -3.375 Z M 4.796875 -3.375 "/></g></g></g><g fill="#000000" fill-opacity="1"><g transform="translate(38.212281, 49.907993)"><g><path d="M 1.96875 -4.890625 C 2.132812 -5.179688 2.363281 -5.40625 2.65625 -5.5625 C 2.945312 -5.726562 3.285156 -5.8125 3.671875 -5.8125 L 3.671875 -4.59375 L 3.375 -4.59375 C 2.914062 -4.59375 2.566406 -4.472656 2.328125 -4.234375 C 2.085938 -4.003906 1.96875 -3.597656 1.96875 -3.015625 L 1.96875 0 L 0.78125 0 L 0.78125 -5.71875 L 1.96875 -5.71875 Z M 1.96875 -4.890625 "/></g></g></g><g fill="#000000" fill-opacity="1"><g transform="translate(41.60055, 49.907993)"><g><path d="M 1.375 -6.484375 C 1.164062 -6.484375 0.988281 -6.554688 0.84375 -6.703125 C 0.695312 -6.847656 0.625 -7.03125 0.625 -7.25 C 0.625 -7.457031 0.695312 -7.632812 0.84375 -7.78125 C 0.988281 -7.925781 1.164062 -8 1.375 -8 C 1.582031 -8 1.757812 -7.925781 1.90625 -7.78125 C 2.050781 -7.632812 2.125 -7.457031 2.125 -7.25 C 2.125 -7.03125 2.050781 -6.847656 1.90625 -6.703125 C 1.757812 -6.554688 1.582031 -6.484375 1.375 -6.484375 Z M 1.96875 -5.71875 L 1.96875 0 L 0.78125 0 L 0.78125 -5.71875 Z M 1.96875 -5.71875 "/></g></g></g><g fill="#000000" fill-opacity="1"><g transform="translate(43.741482, 49.907993)"><g><path d="M 0.390625 -2.890625 C 0.390625 -3.460938 0.503906 -3.96875 0.734375 -4.40625 C 0.972656 -4.851562 1.300781 -5.195312 1.71875 -5.4375 C 2.132812 -5.6875 2.59375 -5.8125 3.09375 -5.8125 C 3.539062 -5.8125 3.929688 -5.722656 4.265625 -5.546875 C 4.597656 -5.367188 4.867188 -5.148438 5.078125 -4.890625 L 5.078125 -5.71875 L 6.265625 -5.71875 L 6.265625 0 L 5.078125 0 L 5.078125 -0.859375 C 4.867188 -0.585938 4.59375 -0.359375 4.25 -0.171875 C 3.90625 0.00390625 3.507812 0.09375 3.0625 0.09375 C 2.570312 0.09375 2.117188 -0.03125 1.703125 -0.28125 C 1.296875 -0.539062 0.972656 -0.894531 0.734375 -1.34375 C 0.503906 -1.800781 0.390625 -2.316406 0.390625 -2.890625 Z M 5.078125 -2.875 C 5.078125 -3.257812 4.992188 -3.597656 4.828125 -3.890625 C 4.660156 -4.179688 4.445312 -4.40625 4.1875 -4.5625 C 3.925781 -4.71875 3.640625 -4.796875 3.328125 -4.796875 C 3.023438 -4.796875 2.742188 -4.71875 2.484375 -4.5625 C 2.222656 -4.414062 2.007812 -4.195312 1.84375 -3.90625 C 1.675781 -3.625 1.59375 -3.285156 1.59375 -2.890625 C 1.59375 -2.492188 1.675781 -2.144531 1.84375 -1.84375 C 2.007812 -1.550781 2.222656 -1.328125 2.484375 -1.171875 C 2.753906 -1.015625 3.035156 -0.9375 3.328125 -0.9375 C 3.640625 -0.9375 3.925781 -1.007812 4.1875 -1.15625 C 4.445312 -1.3125 4.660156 -1.535156 4.828125 -1.828125 C 4.992188 -2.128906 5.078125 -2.476562 5.078125 -2.875 Z M 5.078125 -2.875 "/></g></g></g><g fill="#000000" fill-opacity="1"><g transform="translate(50.177075, 49.907993)"><g/></g></g><g clip-path="url(#9105ae6f25)"><path fill="#000000" d="M 29.566406 12.421875 C 29.175781 13.222656 28.46875 13.808594 27.539062 13.84375 C 26.582031 13.882812 25.902344 13.226562 25.160156 12.730469 C 23.472656 11.601562 21.664062 10.660156 19.792969 9.867188 C 15.59375 8.089844 11.054688 6.984375 6.480469 6.824219 C 4.878906 6.765625 2.535156 7.316406 1.851562 5.367188 C 1.613281 4.691406 1.683594 3.933594 2.085938 3.332031 C 2.570312 2.621094 3.300781 2.414062 4.117188 2.304688 C 8.429688 1.714844 12.90625 2.367188 17.050781 3.59375 C 21.382812 4.882812 25.675781 6.910156 29.003906 10 C 29.796875 10.738281 30.996094 9.554688 30.199219 8.816406 C 26.867188 5.71875 22.648438 3.621094 18.328125 2.234375 C 13.6875 0.746094 8.640625 0 3.78125 0.671875 C 1.738281 0.953125 0.0625 2.335938 0.0234375 4.503906 C -0.00390625 6.035156 0.890625 7.445312 2.230469 8.109375 C 2.304688 8.160156 2.390625 8.203125 2.496094 8.226562 C 2.761719 8.335938 3.039062 8.414062 3.332031 8.457031 C 4.429688 8.628906 5.601562 8.460938 6.710938 8.507812 C 7.96875 8.5625 9.222656 8.691406 10.464844 8.894531 C 13.089844 9.324219 15.675781 10.035156 18.152344 11 C 20.558594 11.933594 22.878906 13.140625 24.980469 14.640625 C 25.34375 14.902344 25.738281 15.101562 26.144531 15.238281 C 25.417969 16.011719 24.695312 16.78125 23.96875 17.554688 C 23.734375 16.417969 22.921875 15.449219 21.707031 15.089844 C 20.003906 14.585938 18.15625 15.613281 17.664062 17.292969 C 17.164062 18.980469 18.1875 20.808594 19.886719 21.300781 C 20.046875 21.347656 20.203125 21.378906 20.363281 21.402344 C 20.300781 21.46875 20.238281 21.535156 20.175781 21.601562 C 16.542969 25.46875 12.914062 29.339844 9.285156 33.207031 C 8.832031 33.691406 8.375 34.179688 7.917969 34.667969 C 7.511719 32.371094 7.105469 30.078125 6.699219 27.785156 C 5.90625 23.316406 5.117188 18.847656 4.324219 14.378906 C 4.140625 13.347656 3.957031 12.316406 3.777344 11.285156 C 3.589844 10.222656 1.957031 10.671875 2.144531 11.730469 C 2.644531 14.550781 3.144531 17.367188 3.644531 20.1875 C 4.433594 24.65625 5.226562 29.125 6.019531 33.59375 C 6.199219 34.628906 6.382812 35.65625 6.566406 36.691406 C 6.675781 37.3125 7.570312 37.492188 7.980469 37.058594 C 10.269531 34.621094 12.554688 32.179688 14.84375 29.742188 C 18.472656 25.871094 22.105469 22.003906 25.730469 18.136719 C 26.566406 17.246094 27.402344 16.359375 28.234375 15.46875 C 28.261719 15.441406 28.28125 15.414062 28.304688 15.386719 C 29.433594 15.164062 30.453125 14.453125 31.027344 13.265625 C 31.496094 12.296875 30.039062 11.445312 29.566406 12.421875 Z M 19.292969 17.738281 C 19.894531 15.820312 22.800781 16.699219 22.300781 18.652344 C 21.648438 20.566406 18.695312 19.652344 19.292969 17.738281 Z M 19.292969 17.738281 " fill-opacity="1" fill-rule="nonzero"/></g><path fill="#000000" d="M 10.492188 10.175781 C 8.789062 9.671875 6.941406 10.699219 6.449219 12.378906 C 5.949219 14.066406 6.972656 15.894531 8.671875 16.386719 C 10.363281 16.878906 12.015625 15.925781 12.644531 14.371094 C 12.675781 14.316406 12.699219 14.253906 12.71875 14.183594 C 12.742188 14.117188 12.753906 14.050781 12.761719 13.988281 C 13.085938 12.335938 12.167969 10.671875 10.492188 10.175781 Z M 8.078125 12.824219 C 8.679688 10.90625 11.585938 11.785156 11.085938 13.738281 C 10.433594 15.652344 7.480469 14.738281 8.078125 12.824219 Z M 8.078125 12.824219 " fill-opacity="1" fill-rule="nonzero"/><path fill="#000000" d="M 9.007812 24.3125 C 9.007812 26.070312 10.5 27.546875 12.273438 27.546875 C 14.027344 27.546875 15.363281 26.179688 15.523438 24.515625 C 15.535156 24.453125 15.539062 24.382812 15.539062 24.3125 C 15.539062 24.242188 15.535156 24.175781 15.523438 24.113281 C 15.363281 22.441406 14.03125 21.085938 12.273438 21.078125 C 10.5 21.070312 9.007812 22.558594 9.007812 24.3125 Z M 13.847656 24.3125 C 13.769531 26.328125 10.699219 26.320312 10.699219 24.3125 C 10.699219 22.308594 13.765625 22.292969 13.847656 24.3125 Z M 13.847656 24.3125 " fill-opacity="1" fill-rule="nonzero"/></svg>