<svg xmlns="http://www.w3.org/2000/svg" xmlns:xlink="http://www.w3.org/1999/xlink" width="56" zoomAndPan="magnify" viewBox="0 0 42 33.749998" height="45" preserveAspectRatio="xMidYMid meet" version="1.0"><defs><g/><clipPath id="7613f746a2"><path d="M 18 27 L 23 27 L 23 33.5 L 18 33.5 Z M 18 27 " clip-rule="nonzero"/></clipPath><clipPath id="44c9e6266c"><path d="M 0.15625 2 L 24 2 L 24 31.640625 L 0.15625 31.640625 Z M 0.15625 2 " clip-rule="nonzero"/></clipPath></defs><g fill="#000000" fill-opacity="1"><g transform="translate(21.518655, 19.532284)"><g><path d="M 2.015625 0.046875 C 1.703125 0.046875 1.421875 -0.00390625 1.171875 -0.109375 C 0.929688 -0.222656 0.738281 -0.378906 0.59375 -0.578125 C 0.457031 -0.773438 0.390625 -1.007812 0.390625 -1.28125 L 1.203125 -1.28125 C 1.210938 -1.070312 1.285156 -0.90625 1.421875 -0.78125 C 1.566406 -0.65625 1.765625 -0.59375 2.015625 -0.59375 C 2.273438 -0.59375 2.476562 -0.65625 2.625 -0.78125 C 2.769531 -0.90625 2.84375 -1.066406 2.84375 -1.265625 C 2.84375 -1.421875 2.796875 -1.546875 2.703125 -1.640625 C 2.617188 -1.742188 2.507812 -1.820312 2.375 -1.875 C 2.238281 -1.925781 2.050781 -1.984375 1.8125 -2.046875 C 1.507812 -2.128906 1.265625 -2.207031 1.078125 -2.28125 C 0.890625 -2.363281 0.726562 -2.488281 0.59375 -2.65625 C 0.46875 -2.832031 0.40625 -3.066406 0.40625 -3.359375 C 0.40625 -3.628906 0.46875 -3.863281 0.59375 -4.0625 C 0.726562 -4.257812 0.914062 -4.410156 1.15625 -4.515625 C 1.394531 -4.617188 1.671875 -4.671875 1.984375 -4.671875 C 2.429688 -4.671875 2.796875 -4.554688 3.078125 -4.328125 C 3.367188 -4.109375 3.53125 -3.804688 3.5625 -3.421875 L 2.71875 -3.421875 C 2.707031 -3.585938 2.628906 -3.726562 2.484375 -3.84375 C 2.335938 -3.96875 2.144531 -4.03125 1.90625 -4.03125 C 1.6875 -4.03125 1.507812 -3.972656 1.375 -3.859375 C 1.238281 -3.753906 1.171875 -3.597656 1.171875 -3.390625 C 1.171875 -3.242188 1.210938 -3.125 1.296875 -3.03125 C 1.378906 -2.945312 1.488281 -2.878906 1.625 -2.828125 C 1.757812 -2.773438 1.941406 -2.71875 2.171875 -2.65625 C 2.472656 -2.570312 2.71875 -2.484375 2.90625 -2.390625 C 3.101562 -2.304688 3.269531 -2.175781 3.40625 -2 C 3.539062 -1.832031 3.609375 -1.601562 3.609375 -1.3125 C 3.609375 -1.070312 3.546875 -0.847656 3.421875 -0.640625 C 3.296875 -0.429688 3.113281 -0.265625 2.875 -0.140625 C 2.632812 -0.015625 2.347656 0.046875 2.015625 0.046875 Z M 2.015625 0.046875 "/></g></g></g><g fill="#000000" fill-opacity="1"><g transform="translate(25.142137, 19.532284)"><g><path d="M 5.40625 -3.65625 L 4.28125 0 L 3.484375 0 L 2.75 -2.703125 L 2 0 L 1.203125 0 L 0.0625 -3.65625 L 0.84375 -3.65625 L 1.59375 -0.71875 L 2.375 -3.65625 L 3.171875 -3.65625 L 3.90625 -0.734375 L 4.671875 -3.65625 Z M 5.40625 -3.65625 "/></g></g></g><g fill="#000000" fill-opacity="1"><g transform="translate(30.232269, 19.532284)"><g><path d="M 0.25 -1.84375 C 0.25 -2.207031 0.320312 -2.53125 0.46875 -2.8125 C 0.625 -3.101562 0.832031 -3.328125 1.09375 -3.484375 C 1.363281 -3.640625 1.65625 -3.71875 1.96875 -3.71875 C 2.257812 -3.71875 2.507812 -3.660156 2.71875 -3.546875 C 2.9375 -3.429688 3.109375 -3.289062 3.234375 -3.125 L 3.234375 -3.65625 L 4 -3.65625 L 4 0 L 3.234375 0 L 3.234375 -0.546875 C 3.109375 -0.367188 2.9375 -0.222656 2.71875 -0.109375 C 2.5 0.00390625 2.242188 0.0625 1.953125 0.0625 C 1.640625 0.0625 1.351562 -0.015625 1.09375 -0.171875 C 0.832031 -0.335938 0.625 -0.566406 0.46875 -0.859375 C 0.320312 -1.148438 0.25 -1.476562 0.25 -1.84375 Z M 3.234375 -1.828125 C 3.234375 -2.085938 3.179688 -2.304688 3.078125 -2.484375 C 2.972656 -2.671875 2.835938 -2.8125 2.671875 -2.90625 C 2.503906 -3.007812 2.320312 -3.0625 2.125 -3.0625 C 1.9375 -3.0625 1.753906 -3.015625 1.578125 -2.921875 C 1.410156 -2.828125 1.273438 -2.6875 1.171875 -2.5 C 1.066406 -2.3125 1.015625 -2.09375 1.015625 -1.84375 C 1.015625 -1.59375 1.066406 -1.367188 1.171875 -1.171875 C 1.273438 -0.984375 1.410156 -0.835938 1.578125 -0.734375 C 1.753906 -0.640625 1.9375 -0.59375 2.125 -0.59375 C 2.320312 -0.59375 2.503906 -0.640625 2.671875 -0.734375 C 2.835938 -0.835938 2.972656 -0.984375 3.078125 -1.171875 C 3.179688 -1.359375 3.234375 -1.578125 3.234375 -1.828125 Z M 3.234375 -1.828125 "/></g></g></g><g fill="#000000" fill-opacity="1"><g transform="translate(34.34685, 19.532284)"><g><path d="M 2.34375 -3.71875 C 2.632812 -3.71875 2.890625 -3.65625 3.109375 -3.53125 C 3.335938 -3.414062 3.515625 -3.238281 3.640625 -3 C 3.773438 -2.769531 3.84375 -2.488281 3.84375 -2.15625 L 3.84375 0 L 3.09375 0 L 3.09375 -2.046875 C 3.09375 -2.367188 3.007812 -2.617188 2.84375 -2.796875 C 2.6875 -2.972656 2.460938 -3.0625 2.171875 -3.0625 C 1.890625 -3.0625 1.664062 -2.972656 1.5 -2.796875 C 1.332031 -2.617188 1.25 -2.367188 1.25 -2.046875 L 1.25 0 L 0.5 0 L 0.5 -3.65625 L 1.25 -3.65625 L 1.25 -3.234375 C 1.375 -3.390625 1.53125 -3.507812 1.71875 -3.59375 C 1.914062 -3.675781 2.125 -3.71875 2.34375 -3.71875 Z M 2.34375 -3.71875 "/></g></g></g><g fill="#000000" fill-opacity="1"><g transform="translate(24.629452, 25.61562)"><g><path d="M 0.25 -1.828125 C 0.25 -2.203125 0.320312 -2.53125 0.46875 -2.8125 C 0.625 -3.101562 0.835938 -3.328125 1.109375 -3.484375 C 1.378906 -3.640625 1.6875 -3.71875 2.03125 -3.71875 C 2.476562 -3.71875 2.847656 -3.613281 3.140625 -3.40625 C 3.429688 -3.195312 3.625 -2.894531 3.71875 -2.5 L 2.90625 -2.5 C 2.84375 -2.6875 2.738281 -2.828125 2.59375 -2.921875 C 2.445312 -3.023438 2.257812 -3.078125 2.03125 -3.078125 C 1.726562 -3.078125 1.484375 -2.96875 1.296875 -2.75 C 1.109375 -2.53125 1.015625 -2.222656 1.015625 -1.828125 C 1.015625 -1.429688 1.109375 -1.125 1.296875 -0.90625 C 1.484375 -0.6875 1.726562 -0.578125 2.03125 -0.578125 C 2.476562 -0.578125 2.769531 -0.769531 2.90625 -1.15625 L 3.71875 -1.15625 C 3.613281 -0.78125 3.414062 -0.484375 3.125 -0.265625 C 2.832031 -0.046875 2.46875 0.0625 2.03125 0.0625 C 1.6875 0.0625 1.378906 -0.015625 1.109375 -0.171875 C 0.835938 -0.328125 0.625 -0.546875 0.46875 -0.828125 C 0.320312 -1.117188 0.25 -1.453125 0.25 -1.828125 Z M 0.25 -1.828125 "/></g></g></g><g fill="#000000" fill-opacity="1"><g transform="translate(28.226394, 25.61562)"><g><path d="M 0.890625 -4.140625 C 0.742188 -4.140625 0.625 -4.1875 0.53125 -4.28125 C 0.445312 -4.375 0.40625 -4.488281 0.40625 -4.625 C 0.40625 -4.757812 0.445312 -4.875 0.53125 -4.96875 C 0.625 -5.0625 0.742188 -5.109375 0.890625 -5.109375 C 1.015625 -5.109375 1.125 -5.0625 1.21875 -4.96875 C 1.3125 -4.875 1.359375 -4.757812 1.359375 -4.625 C 1.359375 -4.488281 1.3125 -4.375 1.21875 -4.28125 C 1.125 -4.1875 1.015625 -4.140625 0.890625 -4.140625 Z M 1.25 -3.65625 L 1.25 0 L 0.5 0 L 0.5 -3.65625 Z M 1.25 -3.65625 "/></g></g></g><g fill="#000000" fill-opacity="1"><g transform="translate(29.593502, 25.61562)"><g><path d="M 1.375 -3.046875 L 1.375 -1.015625 C 1.375 -0.878906 1.40625 -0.78125 1.46875 -0.71875 C 1.539062 -0.65625 1.65625 -0.625 1.8125 -0.625 L 2.265625 -0.625 L 2.265625 0 L 1.671875 0 C 1.328125 0 1.066406 -0.078125 0.890625 -0.234375 C 0.710938 -0.398438 0.625 -0.660156 0.625 -1.015625 L 0.625 -3.046875 L 0.1875 -3.046875 L 0.1875 -3.65625 L 0.625 -3.65625 L 0.625 -4.5625 L 1.375 -4.5625 L 1.375 -3.65625 L 2.265625 -3.65625 L 2.265625 -3.046875 Z M 1.375 -3.046875 "/></g></g></g><g fill="#000000" fill-opacity="1"><g transform="translate(31.677341, 25.61562)"><g><path d="M 3.796875 -3.65625 L 1.546875 1.71875 L 0.765625 1.71875 L 1.5 -0.0625 L 0.0625 -3.65625 L 0.90625 -3.65625 L 1.9375 -0.875 L 3.015625 -3.65625 Z M 3.796875 -3.65625 "/></g></g></g><g clip-path="url(#7613f746a2)"><g fill="#000000" fill-opacity="1"><g transform="translate(18.062214, 31.698956)"><g><path d="M 1.25 -3.125 C 1.382812 -3.289062 1.5625 -3.429688 1.78125 -3.546875 C 2 -3.660156 2.25 -3.71875 2.53125 -3.71875 C 2.851562 -3.71875 3.144531 -3.640625 3.40625 -3.484375 C 3.664062 -3.328125 3.867188 -3.101562 4.015625 -2.8125 C 4.171875 -2.53125 4.25 -2.207031 4.25 -1.84375 C 4.25 -1.476562 4.171875 -1.148438 4.015625 -0.859375 C 3.867188 -0.566406 3.664062 -0.335938 3.40625 -0.171875 C 3.144531 -0.015625 2.851562 0.0625 2.53125 0.0625 C 2.25 0.0625 2 0.00390625 1.78125 -0.109375 C 1.570312 -0.222656 1.394531 -0.363281 1.25 -0.53125 L 1.25 1.734375 L 0.5 1.734375 L 0.5 -3.65625 L 1.25 -3.65625 Z M 3.484375 -1.84375 C 3.484375 -2.09375 3.429688 -2.3125 3.328125 -2.5 C 3.222656 -2.6875 3.082031 -2.828125 2.90625 -2.921875 C 2.738281 -3.015625 2.554688 -3.0625 2.359375 -3.0625 C 2.171875 -3.0625 1.988281 -3.007812 1.8125 -2.90625 C 1.644531 -2.8125 1.507812 -2.671875 1.40625 -2.484375 C 1.300781 -2.304688 1.25 -2.085938 1.25 -1.828125 C 1.25 -1.578125 1.300781 -1.359375 1.40625 -1.171875 C 1.507812 -0.984375 1.644531 -0.835938 1.8125 -0.734375 C 1.988281 -0.640625 2.171875 -0.59375 2.359375 -0.59375 C 2.554688 -0.59375 2.738281 -0.640625 2.90625 -0.734375 C 3.082031 -0.835938 3.222656 -0.984375 3.328125 -1.171875 C 3.429688 -1.367188 3.484375 -1.59375 3.484375 -1.84375 Z M 3.484375 -1.84375 "/></g></g></g></g><g fill="#000000" fill-opacity="1"><g transform="translate(22.176796, 31.698956)"><g><path d="M 0.890625 -4.140625 C 0.742188 -4.140625 0.625 -4.1875 0.53125 -4.28125 C 0.445312 -4.375 0.40625 -4.488281 0.40625 -4.625 C 0.40625 -4.757812 0.445312 -4.875 0.53125 -4.96875 C 0.625 -5.0625 0.742188 -5.109375 0.890625 -5.109375 C 1.015625 -5.109375 1.125 -5.0625 1.21875 -4.96875 C 1.3125 -4.875 1.359375 -4.757812 1.359375 -4.625 C 1.359375 -4.488281 1.3125 -4.375 1.21875 -4.28125 C 1.125 -4.1875 1.015625 -4.140625 0.890625 -4.140625 Z M 1.25 -3.65625 L 1.25 0 L 0.5 0 L 0.5 -3.65625 Z M 1.25 -3.65625 "/></g></g></g><g fill="#000000" fill-opacity="1"><g transform="translate(23.543904, 31.698956)"><g><path d="M 1.171875 -0.625 L 2.828125 -0.625 L 2.828125 0 L 0.296875 0 L 0.296875 -0.625 L 1.953125 -3.046875 L 0.296875 -3.046875 L 0.296875 -3.65625 L 2.828125 -3.65625 L 2.828125 -3.046875 Z M 1.171875 -0.625 "/></g></g></g><g fill="#000000" fill-opacity="1"><g transform="translate(26.284744, 31.698956)"><g><path d="M 1.171875 -0.625 L 2.828125 -0.625 L 2.828125 0 L 0.296875 0 L 0.296875 -0.625 L 1.953125 -3.046875 L 0.296875 -3.046875 L 0.296875 -3.65625 L 2.828125 -3.65625 L 2.828125 -3.046875 Z M 1.171875 -0.625 "/></g></g></g><g fill="#000000" fill-opacity="1"><g transform="translate(29.025585, 31.698956)"><g><path d="M 3.859375 -1.921875 C 3.859375 -1.785156 3.847656 -1.660156 3.828125 -1.546875 L 1.03125 -1.546875 C 1.050781 -1.253906 1.15625 -1.019531 1.34375 -0.84375 C 1.539062 -0.664062 1.785156 -0.578125 2.078125 -0.578125 C 2.484375 -0.578125 2.769531 -0.75 2.9375 -1.09375 L 3.75 -1.09375 C 3.644531 -0.75 3.445312 -0.46875 3.15625 -0.25 C 2.863281 -0.0390625 2.503906 0.0625 2.078125 0.0625 C 1.722656 0.0625 1.40625 -0.015625 1.125 -0.171875 C 0.851562 -0.328125 0.640625 -0.546875 0.484375 -0.828125 C 0.328125 -1.117188 0.25 -1.453125 0.25 -1.828125 C 0.25 -2.203125 0.320312 -2.53125 0.46875 -2.8125 C 0.625 -3.101562 0.835938 -3.328125 1.109375 -3.484375 C 1.390625 -3.640625 1.710938 -3.71875 2.078125 -3.71875 C 2.421875 -3.71875 2.726562 -3.640625 3 -3.484375 C 3.269531 -3.335938 3.476562 -3.128906 3.625 -2.859375 C 3.78125 -2.585938 3.859375 -2.273438 3.859375 -1.921875 Z M 3.0625 -2.15625 C 3.0625 -2.4375 2.960938 -2.660156 2.765625 -2.828125 C 2.566406 -2.992188 2.320312 -3.078125 2.03125 -3.078125 C 1.769531 -3.078125 1.546875 -2.992188 1.359375 -2.828125 C 1.179688 -2.660156 1.070312 -2.4375 1.03125 -2.15625 Z M 3.0625 -2.15625 "/></g></g></g><g fill="#000000" fill-opacity="1"><g transform="translate(32.735343, 31.698956)"><g><path d="M 1.25 -3.125 C 1.363281 -3.3125 1.507812 -3.457031 1.6875 -3.5625 C 1.875 -3.664062 2.09375 -3.71875 2.34375 -3.71875 L 2.34375 -2.9375 L 2.15625 -2.9375 C 1.863281 -2.9375 1.640625 -2.859375 1.484375 -2.703125 C 1.328125 -2.554688 1.25 -2.296875 1.25 -1.921875 L 1.25 0 L 0.5 0 L 0.5 -3.65625 L 1.25 -3.65625 Z M 1.25 -3.125 "/></g></g></g><g fill="#000000" fill-opacity="1"><g transform="translate(34.898817, 31.698956)"><g><path d="M 0.890625 -4.140625 C 0.742188 -4.140625 0.625 -4.1875 0.53125 -4.28125 C 0.445312 -4.375 0.40625 -4.488281 0.40625 -4.625 C 0.40625 -4.757812 0.445312 -4.875 0.53125 -4.96875 C 0.625 -5.0625 0.742188 -5.109375 0.890625 -5.109375 C 1.015625 -5.109375 1.125 -5.0625 1.21875 -4.96875 C 1.3125 -4.875 1.359375 -4.757812 1.359375 -4.625 C 1.359375 -4.488281 1.3125 -4.375 1.21875 -4.28125 C 1.125 -4.1875 1.015625 -4.140625 0.890625 -4.140625 Z M 1.25 -3.65625 L 1.25 0 L 0.5 0 L 0.5 -3.65625 Z M 1.25 -3.65625 "/></g></g></g><g fill="#000000" fill-opacity="1"><g transform="translate(36.265926, 31.698956)"><g><path d="M 0.25 -1.84375 C 0.25 -2.207031 0.320312 -2.53125 0.46875 -2.8125 C 0.625 -3.101562 0.832031 -3.328125 1.09375 -3.484375 C 1.363281 -3.640625 1.65625 -3.71875 1.96875 -3.71875 C 2.257812 -3.71875 2.507812 -3.660156 2.71875 -3.546875 C 2.9375 -3.429688 3.109375 -3.289062 3.234375 -3.125 L 3.234375 -3.65625 L 4 -3.65625 L 4 0 L 3.234375 0 L 3.234375 -0.546875 C 3.109375 -0.367188 2.9375 -0.222656 2.71875 -0.109375 C 2.5 0.00390625 2.242188 0.0625 1.953125 0.0625 C 1.640625 0.0625 1.351562 -0.015625 1.09375 -0.171875 C 0.832031 -0.335938 0.625 -0.566406 0.46875 -0.859375 C 0.320312 -1.148438 0.25 -1.476562 0.25 -1.84375 Z M 3.234375 -1.828125 C 3.234375 -2.085938 3.179688 -2.304688 3.078125 -2.484375 C 2.972656 -2.671875 2.835938 -2.8125 2.671875 -2.90625 C 2.503906 -3.007812 2.320312 -3.0625 2.125 -3.0625 C 1.9375 -3.0625 1.753906 -3.015625 1.578125 -2.921875 C 1.410156 -2.828125 1.273438 -2.6875 1.171875 -2.5 C 1.066406 -2.3125 1.015625 -2.09375 1.015625 -1.84375 C 1.015625 -1.59375 1.066406 -1.367188 1.171875 -1.171875 C 1.273438 -0.984375 1.410156 -0.835938 1.578125 -0.734375 C 1.753906 -0.640625 1.9375 -0.59375 2.125 -0.59375 C 2.320312 -0.59375 2.503906 -0.640625 2.671875 -0.734375 C 2.835938 -0.835938 2.972656 -0.984375 3.078125 -1.171875 C 3.179688 -1.359375 3.234375 -1.578125 3.234375 -1.828125 Z M 3.234375 -1.828125 "/></g></g></g><g fill="#000000" fill-opacity="1"><g transform="translate(40.37354, 31.698956)"><g/></g></g><g clip-path="url(#44c9e6266c)"><path fill="#000000" d="M 22.53125 11.722656 C 22.226562 12.363281 21.675781 12.824219 20.949219 12.855469 C 20.203125 12.886719 19.671875 12.367188 19.09375 11.96875 C 17.777344 11.074219 16.367188 10.328125 14.90625 9.699219 C 11.632812 8.285156 8.089844 7.410156 4.523438 7.28125 C 3.273438 7.234375 1.449219 7.671875 0.914062 6.125 C 0.730469 5.585938 0.78125 4.984375 1.097656 4.507812 C 1.472656 3.945312 2.046875 3.78125 2.683594 3.691406 C 6.046875 3.226562 9.539062 3.742188 12.769531 4.71875 C 16.148438 5.738281 19.496094 7.351562 22.089844 9.804688 C 22.710938 10.390625 23.644531 9.449219 23.023438 8.863281 C 20.425781 6.402344 17.132812 4.738281 13.765625 3.636719 C 10.144531 2.457031 6.210938 1.863281 2.417969 2.394531 C 0.824219 2.617188 -0.480469 3.71875 -0.511719 5.441406 C -0.53125 6.65625 0.164062 7.773438 1.207031 8.300781 C 1.269531 8.34375 1.335938 8.375 1.417969 8.394531 C 1.625 8.480469 1.84375 8.542969 2.070312 8.578125 C 2.925781 8.714844 3.839844 8.582031 4.707031 8.617188 C 5.6875 8.660156 6.664062 8.765625 7.632812 8.925781 C 9.679688 9.265625 11.695312 9.832031 13.628906 10.597656 C 15.507812 11.339844 17.316406 12.296875 18.953125 13.488281 C 19.238281 13.695312 19.546875 13.855469 19.859375 13.960938 C 19.296875 14.574219 18.730469 15.1875 18.164062 15.800781 C 17.984375 14.898438 17.347656 14.128906 16.402344 13.84375 C 15.074219 13.445312 13.632812 14.261719 13.246094 15.59375 C 12.855469 16.933594 13.65625 18.386719 14.980469 18.777344 C 15.105469 18.8125 15.226562 18.839844 15.351562 18.855469 C 15.300781 18.910156 15.253906 18.960938 15.207031 19.015625 C 12.375 22.085938 9.542969 25.160156 6.714844 28.230469 C 6.359375 28.617188 6 29.003906 5.644531 29.390625 C 5.328125 27.566406 5.011719 25.746094 4.695312 23.925781 C 4.078125 20.378906 3.460938 16.828125 2.84375 13.28125 C 2.699219 12.460938 2.558594 11.640625 2.417969 10.824219 C 2.269531 9.980469 1 10.335938 1.144531 11.175781 C 1.535156 13.414062 1.921875 15.652344 2.3125 17.894531 C 2.929688 21.441406 3.546875 24.992188 4.164062 28.539062 C 4.304688 29.359375 4.449219 30.175781 4.589844 30.996094 C 4.675781 31.488281 5.375 31.632812 5.695312 31.289062 C 7.480469 29.351562 9.261719 27.414062 11.050781 25.476562 C 13.878906 22.40625 16.710938 19.335938 19.539062 16.265625 C 20.191406 15.558594 20.84375 14.851562 21.492188 14.144531 C 21.511719 14.125 21.53125 14.101562 21.546875 14.082031 C 22.429688 13.902344 23.222656 13.339844 23.671875 12.394531 C 24.035156 11.628906 22.898438 10.953125 22.53125 11.722656 Z M 14.515625 15.949219 C 14.984375 14.421875 17.253906 15.121094 16.863281 16.671875 C 16.355469 18.191406 14.050781 17.46875 14.515625 15.949219 Z M 14.515625 15.949219 " fill-opacity="1" fill-rule="nonzero"/></g><path fill="#000000" d="M 7.652344 9.941406 C 6.328125 9.542969 4.886719 10.359375 4.5 11.691406 C 4.109375 13.035156 4.910156 14.484375 6.234375 14.875 C 7.550781 15.265625 8.84375 14.507812 9.332031 13.273438 C 9.355469 13.230469 9.375 13.179688 9.390625 13.125 C 9.40625 13.070312 9.417969 13.019531 9.425781 12.96875 C 9.675781 11.660156 8.960938 10.335938 7.652344 9.941406 Z M 5.769531 12.046875 C 6.238281 10.519531 8.507812 11.21875 8.117188 12.773438 C 7.609375 14.292969 5.304688 13.566406 5.769531 12.046875 Z M 5.769531 12.046875 " fill-opacity="1" fill-rule="nonzero"/><path fill="#000000" d="M 6.496094 21.167969 C 6.496094 22.5625 7.660156 23.738281 9.042969 23.738281 C 10.414062 23.738281 11.453125 22.652344 11.578125 21.328125 C 11.585938 21.277344 11.589844 21.226562 11.589844 21.167969 C 11.589844 21.113281 11.585938 21.058594 11.578125 21.007812 C 11.453125 19.683594 10.414062 18.605469 9.042969 18.601562 C 7.660156 18.59375 6.496094 19.773438 6.496094 21.167969 Z M 10.269531 21.167969 C 10.210938 22.769531 7.816406 22.761719 7.816406 21.167969 C 7.816406 19.574219 10.207031 19.566406 10.269531 21.167969 Z M 10.269531 21.167969 " fill-opacity="1" fill-rule="nonzero"/></svg>