<svg xmlns="http://www.w3.org/2000/svg" xmlns:xlink="http://www.w3.org/1999/xlink" width="56" zoomAndPan="magnify" viewBox="0 0 42 30.000001" height="40" preserveAspectRatio="xMidYMid meet" version="1.0"><defs><g/><clipPath id="f250f1abfe"><path d="M 16.164062 8.710938 L 25.601562 8.710938 L 25.601562 20.324219 L 16.164062 20.324219 Z M 16.164062 8.710938 " clip-rule="nonzero"/></clipPath></defs><g clip-path="url(#f250f1abfe)"><path fill="#000000" d="M 25.019531 12.558594 C 24.90625 12.804688 24.691406 12.984375 24.414062 12.996094 C 24.128906 13.007812 23.925781 12.808594 23.699219 12.652344 C 23.195312 12.304688 22.652344 12.011719 22.09375 11.765625 C 20.835938 11.214844 19.476562 10.875 18.105469 10.824219 C 17.625 10.808594 16.925781 10.976562 16.71875 10.375 C 16.648438 10.164062 16.667969 9.929688 16.789062 9.746094 C 16.933594 9.523438 17.152344 9.460938 17.398438 9.425781 C 18.691406 9.246094 20.03125 9.445312 21.273438 9.824219 C 22.570312 10.222656 23.855469 10.851562 24.851562 11.808594 C 25.089844 12.035156 25.449219 11.671875 25.210938 11.441406 C 24.210938 10.484375 22.949219 9.832031 21.65625 9.40625 C 20.265625 8.945312 18.753906 8.714844 17.296875 8.921875 C 16.683594 9.007812 16.183594 9.4375 16.171875 10.109375 C 16.164062 10.582031 16.429688 11.015625 16.832031 11.222656 C 16.855469 11.238281 16.882812 11.25 16.910156 11.257812 C 16.992188 11.292969 17.074219 11.316406 17.164062 11.332031 C 17.492188 11.382812 17.84375 11.332031 18.175781 11.347656 C 18.550781 11.363281 18.925781 11.402344 19.300781 11.464844 C 20.085938 11.597656 20.859375 11.820312 21.601562 12.117188 C 22.324219 12.40625 23.019531 12.78125 23.648438 13.246094 C 23.757812 13.324219 23.875 13.386719 23.996094 13.429688 C 23.777344 13.667969 23.5625 13.90625 23.34375 14.144531 C 23.273438 13.792969 23.03125 13.492188 22.667969 13.382812 C 22.15625 13.226562 21.605469 13.546875 21.457031 14.066406 C 21.304688 14.589844 21.613281 15.152344 22.121094 15.304688 C 22.167969 15.320312 22.214844 15.332031 22.265625 15.335938 C 22.246094 15.359375 22.226562 15.378906 22.207031 15.398438 C 21.121094 16.597656 20.035156 17.792969 18.945312 18.992188 C 18.808594 19.140625 18.671875 19.292969 18.535156 19.441406 C 18.414062 18.730469 18.292969 18.023438 18.171875 17.3125 C 17.933594 15.929688 17.699219 14.546875 17.460938 13.164062 C 17.40625 12.84375 17.351562 12.523438 17.296875 12.207031 C 17.238281 11.878906 16.75 12.015625 16.808594 12.34375 C 16.957031 13.214844 17.105469 14.089844 17.257812 14.960938 C 17.492188 16.34375 17.730469 17.726562 17.96875 19.109375 C 18.023438 19.429688 18.078125 19.75 18.132812 20.070312 C 18.164062 20.261719 18.433594 20.316406 18.554688 20.183594 C 19.242188 19.429688 19.925781 18.671875 20.613281 17.917969 C 21.699219 16.71875 22.785156 15.523438 23.871094 14.328125 C 24.121094 14.050781 24.371094 13.777344 24.621094 13.5 C 24.628906 13.492188 24.636719 13.484375 24.644531 13.476562 C 24.980469 13.40625 25.289062 13.1875 25.460938 12.820312 C 25.597656 12.519531 25.164062 12.257812 25.019531 12.558594 Z M 21.945312 14.203125 C 22.125 13.609375 22.996094 13.882812 22.84375 14.484375 C 22.648438 15.078125 21.765625 14.796875 21.945312 14.203125 Z M 21.945312 14.203125 " fill-opacity="1" fill-rule="nonzero"/></g><path fill="#000000" d="M 19.308594 11.863281 C 18.796875 11.707031 18.246094 12.023438 18.097656 12.542969 C 17.945312 13.066406 18.253906 13.632812 18.761719 13.785156 C 19.269531 13.9375 19.765625 13.640625 19.953125 13.160156 C 19.960938 13.144531 19.96875 13.125 19.972656 13.101562 C 19.980469 13.082031 19.984375 13.0625 19.988281 13.042969 C 20.085938 12.53125 19.808594 12.015625 19.308594 11.863281 Z M 18.585938 12.683594 C 18.765625 12.085938 19.636719 12.359375 19.484375 12.964844 C 19.289062 13.558594 18.40625 13.273438 18.585938 12.683594 Z M 18.585938 12.683594 " fill-opacity="1" fill-rule="nonzero"/><path fill="#000000" d="M 18.863281 16.238281 C 18.863281 16.78125 19.308594 17.238281 19.839844 17.238281 C 20.367188 17.238281 20.765625 16.816406 20.816406 16.300781 C 20.816406 16.28125 20.820312 16.261719 20.820312 16.238281 C 20.820312 16.214844 20.816406 16.195312 20.816406 16.175781 C 20.765625 15.660156 20.367188 15.238281 19.839844 15.238281 C 19.308594 15.234375 18.863281 15.695312 18.863281 16.238281 Z M 20.3125 16.238281 C 20.289062 16.863281 19.371094 16.859375 19.371094 16.238281 C 19.371094 15.617188 20.289062 15.613281 20.3125 16.238281 Z M 20.3125 16.238281 " fill-opacity="1" fill-rule="nonzero"/><g fill="#000000" fill-opacity="1"><g transform="translate(23.869083, 17.780644)"><g><path d="M 1.171875 0.03125 C 0.992188 0.03125 0.832031 0 0.6875 -0.0625 C 0.539062 -0.125 0.425781 -0.210938 0.34375 -0.328125 C 0.257812 -0.453125 0.21875 -0.59375 0.21875 -0.75 L 0.703125 -0.75 C 0.710938 -0.625 0.753906 -0.523438 0.828125 -0.453125 C 0.910156 -0.378906 1.023438 -0.34375 1.171875 -0.34375 C 1.328125 -0.34375 1.445312 -0.378906 1.53125 -0.453125 C 1.613281 -0.523438 1.65625 -0.617188 1.65625 -0.734375 C 1.65625 -0.828125 1.628906 -0.898438 1.578125 -0.953125 C 1.523438 -1.015625 1.457031 -1.0625 1.375 -1.09375 C 1.300781 -1.125 1.195312 -1.15625 1.0625 -1.1875 C 0.882812 -1.238281 0.738281 -1.285156 0.625 -1.328125 C 0.519531 -1.378906 0.425781 -1.453125 0.34375 -1.546875 C 0.269531 -1.648438 0.234375 -1.785156 0.234375 -1.953125 C 0.234375 -2.109375 0.269531 -2.242188 0.34375 -2.359375 C 0.425781 -2.484375 0.535156 -2.578125 0.671875 -2.640625 C 0.816406 -2.703125 0.976562 -2.734375 1.15625 -2.734375 C 1.414062 -2.734375 1.628906 -2.664062 1.796875 -2.53125 C 1.960938 -2.40625 2.054688 -2.226562 2.078125 -2 L 1.59375 -2 C 1.582031 -2.09375 1.535156 -2.175781 1.453125 -2.25 C 1.367188 -2.320312 1.253906 -2.359375 1.109375 -2.359375 C 0.984375 -2.359375 0.878906 -2.320312 0.796875 -2.25 C 0.722656 -2.1875 0.6875 -2.09375 0.6875 -1.96875 C 0.6875 -1.894531 0.707031 -1.828125 0.75 -1.765625 C 0.800781 -1.710938 0.863281 -1.671875 0.9375 -1.640625 C 1.019531 -1.609375 1.128906 -1.578125 1.265625 -1.546875 C 1.441406 -1.492188 1.585938 -1.441406 1.703125 -1.390625 C 1.816406 -1.347656 1.910156 -1.273438 1.984375 -1.171875 C 2.066406 -1.066406 2.109375 -0.929688 2.109375 -0.765625 C 2.109375 -0.628906 2.070312 -0.5 2 -0.375 C 1.925781 -0.25 1.816406 -0.148438 1.671875 -0.078125 C 1.535156 -0.00390625 1.367188 0.03125 1.171875 0.03125 Z M 1.171875 0.03125 "/></g></g></g><g fill="#000000" fill-opacity="1"><g transform="translate(25.982645, 17.780644)"><g><path d="M 3.15625 -2.140625 L 2.5 0 L 2.03125 0 L 1.59375 -1.578125 L 1.171875 0 L 0.703125 0 L 0.03125 -2.140625 L 0.484375 -2.140625 L 0.9375 -0.421875 L 1.390625 -2.140625 L 1.84375 -2.140625 L 2.28125 -0.421875 L 2.71875 -2.140625 Z M 3.15625 -2.140625 "/></g></g></g><g fill="#000000" fill-opacity="1"><g transform="translate(28.951698, 17.780644)"><g><path d="M 0.140625 -1.078125 C 0.140625 -1.296875 0.179688 -1.484375 0.265625 -1.640625 C 0.359375 -1.804688 0.484375 -1.9375 0.640625 -2.03125 C 0.796875 -2.125 0.96875 -2.171875 1.15625 -2.171875 C 1.320312 -2.171875 1.46875 -2.132812 1.59375 -2.0625 C 1.71875 -2 1.816406 -1.921875 1.890625 -1.828125 L 1.890625 -2.140625 L 2.34375 -2.140625 L 2.34375 0 L 1.890625 0 L 1.890625 -0.3125 C 1.816406 -0.21875 1.710938 -0.132812 1.578125 -0.0625 C 1.453125 0 1.304688 0.03125 1.140625 0.03125 C 0.960938 0.03125 0.796875 -0.015625 0.640625 -0.109375 C 0.484375 -0.203125 0.359375 -0.332031 0.265625 -0.5 C 0.179688 -0.664062 0.140625 -0.859375 0.140625 -1.078125 Z M 1.890625 -1.0625 C 1.890625 -1.21875 1.859375 -1.347656 1.796875 -1.453125 C 1.734375 -1.554688 1.65625 -1.632812 1.5625 -1.6875 C 1.46875 -1.75 1.363281 -1.78125 1.25 -1.78125 C 1.132812 -1.78125 1.023438 -1.753906 0.921875 -1.703125 C 0.828125 -1.648438 0.75 -1.566406 0.6875 -1.453125 C 0.625 -1.347656 0.59375 -1.222656 0.59375 -1.078125 C 0.59375 -0.929688 0.625 -0.800781 0.6875 -0.6875 C 0.75 -0.570312 0.828125 -0.484375 0.921875 -0.421875 C 1.023438 -0.367188 1.132812 -0.34375 1.25 -0.34375 C 1.363281 -0.34375 1.46875 -0.367188 1.5625 -0.421875 C 1.65625 -0.484375 1.734375 -0.566406 1.796875 -0.671875 C 1.859375 -0.785156 1.890625 -0.914062 1.890625 -1.0625 Z M 1.890625 -1.0625 "/></g></g></g><g fill="#000000" fill-opacity="1"><g transform="translate(31.351717, 17.780644)"><g><path d="M 1.375 -2.171875 C 1.539062 -2.171875 1.6875 -2.132812 1.8125 -2.0625 C 1.945312 -1.988281 2.050781 -1.882812 2.125 -1.75 C 2.207031 -1.613281 2.25 -1.453125 2.25 -1.265625 L 2.25 0 L 1.8125 0 L 1.8125 -1.1875 C 1.8125 -1.382812 1.757812 -1.53125 1.65625 -1.625 C 1.5625 -1.726562 1.429688 -1.78125 1.265625 -1.78125 C 1.097656 -1.78125 0.96875 -1.726562 0.875 -1.625 C 0.78125 -1.53125 0.734375 -1.382812 0.734375 -1.1875 L 0.734375 0 L 0.296875 0 L 0.296875 -2.140625 L 0.734375 -2.140625 L 0.734375 -1.890625 C 0.804688 -1.972656 0.894531 -2.039062 1 -2.09375 C 1.113281 -2.144531 1.238281 -2.171875 1.375 -2.171875 Z M 1.375 -2.171875 "/></g></g></g><g fill="#000000" fill-opacity="1"><g transform="translate(25.683598, 20.361288)"><g><path d="M 0.140625 -1.0625 C 0.140625 -1.289062 0.179688 -1.488281 0.265625 -1.65625 C 0.359375 -1.820312 0.484375 -1.945312 0.640625 -2.03125 C 0.804688 -2.125 0.988281 -2.171875 1.1875 -2.171875 C 1.445312 -2.171875 1.660156 -2.109375 1.828125 -1.984375 C 1.992188 -1.859375 2.109375 -1.679688 2.171875 -1.453125 L 1.703125 -1.453125 C 1.660156 -1.566406 1.597656 -1.648438 1.515625 -1.703125 C 1.429688 -1.765625 1.320312 -1.796875 1.1875 -1.796875 C 1.007812 -1.796875 0.863281 -1.734375 0.75 -1.609375 C 0.644531 -1.484375 0.59375 -1.300781 0.59375 -1.0625 C 0.59375 -0.832031 0.644531 -0.65625 0.75 -0.53125 C 0.863281 -0.40625 1.007812 -0.34375 1.1875 -0.34375 C 1.445312 -0.34375 1.617188 -0.453125 1.703125 -0.671875 L 2.171875 -0.671875 C 2.109375 -0.453125 1.988281 -0.28125 1.8125 -0.15625 C 1.644531 -0.03125 1.4375 0.03125 1.1875 0.03125 C 0.988281 0.03125 0.804688 -0.0078125 0.640625 -0.09375 C 0.484375 -0.1875 0.359375 -0.316406 0.265625 -0.484375 C 0.179688 -0.648438 0.140625 -0.84375 0.140625 -1.0625 Z M 0.140625 -1.0625 "/></g></g></g><g fill="#000000" fill-opacity="1"><g transform="translate(27.78168, 20.361288)"><g><path d="M 0.515625 -2.421875 C 0.429688 -2.421875 0.363281 -2.445312 0.3125 -2.5 C 0.257812 -2.550781 0.234375 -2.617188 0.234375 -2.703125 C 0.234375 -2.785156 0.257812 -2.851562 0.3125 -2.90625 C 0.363281 -2.957031 0.429688 -2.984375 0.515625 -2.984375 C 0.585938 -2.984375 0.648438 -2.957031 0.703125 -2.90625 C 0.765625 -2.851562 0.796875 -2.785156 0.796875 -2.703125 C 0.796875 -2.617188 0.765625 -2.550781 0.703125 -2.5 C 0.648438 -2.445312 0.585938 -2.421875 0.515625 -2.421875 Z M 0.734375 -2.140625 L 0.734375 0 L 0.296875 0 L 0.296875 -2.140625 Z M 0.734375 -2.140625 "/></g></g></g><g fill="#000000" fill-opacity="1"><g transform="translate(28.579108, 20.361288)"><g><path d="M 0.8125 -1.78125 L 0.8125 -0.59375 C 0.8125 -0.507812 0.828125 -0.453125 0.859375 -0.421875 C 0.898438 -0.390625 0.960938 -0.375 1.046875 -0.375 L 1.328125 -0.375 L 1.328125 0 L 0.96875 0 C 0.769531 0 0.617188 -0.046875 0.515625 -0.140625 C 0.410156 -0.234375 0.359375 -0.382812 0.359375 -0.59375 L 0.359375 -1.78125 L 0.109375 -1.78125 L 0.109375 -2.140625 L 0.359375 -2.140625 L 0.359375 -2.671875 L 0.8125 -2.671875 L 0.8125 -2.140625 L 1.328125 -2.140625 L 1.328125 -1.78125 Z M 0.8125 -1.78125 "/></g></g></g><g fill="#000000" fill-opacity="1"><g transform="translate(29.794603, 20.361288)"><g><path d="M 2.21875 -2.140625 L 0.90625 1 L 0.453125 1 L 0.875 -0.03125 L 0.03125 -2.140625 L 0.53125 -2.140625 L 1.125 -0.5 L 1.75 -2.140625 Z M 2.21875 -2.140625 "/></g></g></g><g fill="#000000" fill-opacity="1"><g transform="translate(24.357994, 22.941932)"><g><path d="M 0.734375 -1.828125 C 0.804688 -1.921875 0.90625 -2 1.03125 -2.0625 C 1.164062 -2.132812 1.3125 -2.171875 1.46875 -2.171875 C 1.65625 -2.171875 1.828125 -2.125 1.984375 -2.03125 C 2.140625 -1.9375 2.257812 -1.804688 2.34375 -1.640625 C 2.4375 -1.484375 2.484375 -1.296875 2.484375 -1.078125 C 2.484375 -0.859375 2.4375 -0.664062 2.34375 -0.5 C 2.257812 -0.332031 2.140625 -0.203125 1.984375 -0.109375 C 1.828125 -0.015625 1.65625 0.03125 1.46875 0.03125 C 1.3125 0.03125 1.171875 0 1.046875 -0.0625 C 0.921875 -0.125 0.816406 -0.207031 0.734375 -0.3125 L 0.734375 1.015625 L 0.296875 1.015625 L 0.296875 -2.140625 L 0.734375 -2.140625 Z M 2.03125 -1.078125 C 2.03125 -1.222656 2 -1.347656 1.9375 -1.453125 C 1.875 -1.566406 1.789062 -1.648438 1.6875 -1.703125 C 1.59375 -1.753906 1.488281 -1.78125 1.375 -1.78125 C 1.269531 -1.78125 1.164062 -1.75 1.0625 -1.6875 C 0.96875 -1.632812 0.890625 -1.554688 0.828125 -1.453125 C 0.765625 -1.347656 0.734375 -1.21875 0.734375 -1.0625 C 0.734375 -0.914062 0.765625 -0.785156 0.828125 -0.671875 C 0.890625 -0.566406 0.96875 -0.484375 1.0625 -0.421875 C 1.164062 -0.367188 1.269531 -0.34375 1.375 -0.34375 C 1.488281 -0.34375 1.59375 -0.367188 1.6875 -0.421875 C 1.789062 -0.484375 1.875 -0.570312 1.9375 -0.6875 C 2 -0.800781 2.03125 -0.929688 2.03125 -1.078125 Z M 2.03125 -1.078125 "/></g></g></g><g fill="#000000" fill-opacity="1"><g transform="translate(26.758013, 22.941932)"><g><path d="M 0.515625 -2.421875 C 0.429688 -2.421875 0.363281 -2.445312 0.3125 -2.5 C 0.257812 -2.550781 0.234375 -2.617188 0.234375 -2.703125 C 0.234375 -2.785156 0.257812 -2.851562 0.3125 -2.90625 C 0.363281 -2.957031 0.429688 -2.984375 0.515625 -2.984375 C 0.585938 -2.984375 0.648438 -2.957031 0.703125 -2.90625 C 0.765625 -2.851562 0.796875 -2.785156 0.796875 -2.703125 C 0.796875 -2.617188 0.765625 -2.550781 0.703125 -2.5 C 0.648438 -2.445312 0.585938 -2.421875 0.515625 -2.421875 Z M 0.734375 -2.140625 L 0.734375 0 L 0.296875 0 L 0.296875 -2.140625 Z M 0.734375 -2.140625 "/></g></g></g><g fill="#000000" fill-opacity="1"><g transform="translate(27.555441, 22.941932)"><g><path d="M 0.6875 -0.359375 L 1.65625 -0.359375 L 1.65625 0 L 0.171875 0 L 0.171875 -0.359375 L 1.140625 -1.78125 L 0.171875 -1.78125 L 0.171875 -2.140625 L 1.65625 -2.140625 L 1.65625 -1.78125 Z M 0.6875 -0.359375 "/></g></g></g><g fill="#000000" fill-opacity="1"><g transform="translate(29.154162, 22.941932)"><g><path d="M 0.6875 -0.359375 L 1.65625 -0.359375 L 1.65625 0 L 0.171875 0 L 0.171875 -0.359375 L 1.140625 -1.78125 L 0.171875 -1.78125 L 0.171875 -2.140625 L 1.65625 -2.140625 L 1.65625 -1.78125 Z M 0.6875 -0.359375 "/></g></g></g><g fill="#000000" fill-opacity="1"><g transform="translate(30.752883, 22.941932)"><g><path d="M 0.140625 -1.078125 C 0.140625 -1.296875 0.179688 -1.484375 0.265625 -1.640625 C 0.359375 -1.804688 0.484375 -1.9375 0.640625 -2.03125 C 0.796875 -2.125 0.96875 -2.171875 1.15625 -2.171875 C 1.320312 -2.171875 1.46875 -2.132812 1.59375 -2.0625 C 1.71875 -2 1.816406 -1.921875 1.890625 -1.828125 L 1.890625 -2.140625 L 2.34375 -2.140625 L 2.34375 0 L 1.890625 0 L 1.890625 -0.3125 C 1.816406 -0.21875 1.710938 -0.132812 1.578125 -0.0625 C 1.453125 0 1.304688 0.03125 1.140625 0.03125 C 0.960938 0.03125 0.796875 -0.015625 0.640625 -0.109375 C 0.484375 -0.203125 0.359375 -0.332031 0.265625 -0.5 C 0.179688 -0.664062 0.140625 -0.859375 0.140625 -1.078125 Z M 1.890625 -1.0625 C 1.890625 -1.21875 1.859375 -1.347656 1.796875 -1.453125 C 1.734375 -1.554688 1.65625 -1.632812 1.5625 -1.6875 C 1.46875 -1.75 1.363281 -1.78125 1.25 -1.78125 C 1.132812 -1.78125 1.023438 -1.753906 0.921875 -1.703125 C 0.828125 -1.648438 0.75 -1.566406 0.6875 -1.453125 C 0.625 -1.347656 0.59375 -1.222656 0.59375 -1.078125 C 0.59375 -0.929688 0.625 -0.800781 0.6875 -0.6875 C 0.75 -0.570312 0.828125 -0.484375 0.921875 -0.421875 C 1.023438 -0.367188 1.132812 -0.34375 1.25 -0.34375 C 1.363281 -0.34375 1.46875 -0.367188 1.5625 -0.421875 C 1.65625 -0.484375 1.734375 -0.566406 1.796875 -0.671875 C 1.859375 -0.785156 1.890625 -0.914062 1.890625 -1.0625 Z M 1.890625 -1.0625 "/></g></g></g></svg>